<svg width="60" height="64" viewBox="0 0 60 64" fill="none" xmlns="http://www.w3.org/2000/svg">
<ellipse cx="29.5" cy="59.5" rx="8.5" ry="2.5" fill="#D0D0D0" style="mix-blend-mode:multiply"/>
<g filter="url(#filter0_d_1482_2367)">
<path d="M29.9282 59.25C32.6819 59.25 35.6174 58.1346 38.3584 56.4756C41.1347 54.7953 43.8959 52.4465 46.3423 49.7132C51.1807 44.3074 55.1064 37.0258 55.1064 29.9282C55.1064 16.0227 43.8337 4.75 29.9282 4.75C16.0227 4.75 4.75 16.0227 4.75 29.9282C4.75 37.0258 8.67561 44.3074 13.5141 49.7132C15.9605 52.4465 18.7217 54.7953 21.4979 56.4756C24.2389 58.1346 27.1744 59.25 29.9282 59.25ZM52.6064 29.9282C52.6064 36.1745 49.0984 42.8854 44.4795 48.0459C42.173 50.6229 39.5984 52.8028 37.0639 54.3369C34.5255 55.8733 32.047 56.75 29.9282 56.75C27.8093 56.75 25.3309 55.8733 22.7924 54.3369C20.2579 52.8028 17.6833 50.6229 15.3769 48.0459C10.758 42.8854 7.25 36.1745 7.25 29.9282C7.25 17.4034 17.4034 7.25 29.9282 7.25C42.453 7.25 52.6064 17.4034 52.6064 29.9282Z" fill="white" stroke="#C7C7C7" stroke-width="0.5"/>
<path d="M52.8564 29.9282C52.8564 42.5911 38.6575 57 29.9282 57C21.1989 57 7 42.5911 7 29.9282C7 17.2653 17.2653 7 29.9282 7C42.5911 7 52.8564 17.2653 52.8564 29.9282Z" fill="#3A2F61"/>
<path d="M37.0222 24.8088C37.0222 23.9679 36.3404 23.2861 35.4995 23.2861H24.8885C24.0476 23.2861 23.3658 23.9679 23.3658 24.8088V30.2353C23.3658 30.3922 23.3902 30.5469 23.4377 30.6972C23.8885 32.1171 26.3095 40.053 26.1194 46.1734C26.0995 46.8099 26.473 47.3944 27.0631 47.6342C27.7935 47.9314 28.778 48.2121 29.9592 48.2464C31.3957 48.2872 32.5791 47.9458 33.4001 47.6033C33.957 47.3712 34.3227 46.8298 34.3316 46.2265C34.378 43.3149 34.6355 39.9314 35.462 36.2541C36.0752 33.5248 36.736 31.3734 36.9504 30.6983C36.9979 30.5491 37.0222 30.3933 37.0222 30.2364V24.8099V24.8088Z" fill="url(#paint0_linear_1482_2367)"/>
<path d="M37.0222 23.2861V28.9999C35.1758 29.3557 32.9029 29.643 30.3006 29.6508C27.6056 29.6585 25.2587 29.3635 23.3669 28.9999V23.2861H37.0222Z" fill="url(#paint1_linear_1482_2367)"/>
<path opacity="0.29" d="M37.0354 23.4918C36.2895 25.421 34.9713 26.1249 34.3846 26.4023C32.2641 27.4067 29.2122 27.4774 27.5503 25.842C27.2708 25.5669 27.0862 25.2984 26.979 25.1238C26.7967 25.5746 26.5724 25.7337 26.4011 25.7967C26.1348 25.894 25.9094 25.7868 25.8034 25.9326C25.7404 26.0199 25.7901 26.0995 25.8409 26.4918C25.8696 26.7094 25.8851 26.8674 25.8884 27.0476C25.894 27.379 25.9801 27.7525 25.6862 28.3348C25.5525 28.6 25.3868 29.0199 25.3967 29.536C25.4111 30.2288 25.7304 30.3813 25.7724 31.1127C25.7868 31.3536 25.7945 32.0674 25.3382 32.7326C25.0884 33.0973 24.4995 33.6022 24.3083 33.7216L22.6431 26.7448L24.989 23.3547C29 23.6398 33.0232 23.2078 37.0343 23.4918H37.0354Z" fill="url(#paint2_linear_1482_2367)"/>
<path d="M37.0222 28.9392C35.1603 29.3193 32.8388 29.6364 30.1636 29.6519C27.4487 29.6674 25.0929 29.3668 23.21 29" stroke="#F9C7F4" stroke-width="0.251669" stroke-miterlimit="10" stroke-linecap="round"/>
<path d="M31.3636 15.8685C29.9415 15.8509 28.6708 16.3879 28.6708 16.3879C27.8597 16.7205 27.1503 17.1978 26.5934 17.7801C26.2564 17.6707 25.8962 17.61 25.5216 17.61C23.6089 17.61 22.0575 19.1614 22.0575 21.0741C22.0575 21.3448 22.0896 21.6067 22.1481 21.8597C22.2233 22.7868 22.2487 24.3503 21.7448 25.5161C20.9824 27.2807 22.3116 29.6995 22.3116 29.6995C22.3923 29.8277 22.494 30.0288 22.515 30.2829C22.5448 30.6542 22.3813 30.9039 22.3116 31.094C22.0365 31.8431 22.6652 33.1227 23.2907 33.1868C23.9083 33.2498 24.7216 32.147 24.6752 31.2C24.6465 30.6122 24.305 30.4619 24.2089 29.5746C24.1448 28.9823 24.2365 28.4917 24.284 28.2807C24.4951 27.3448 24.8774 27.2752 24.8862 26.61C24.8951 25.9779 24.5547 25.673 24.757 25.4056C24.9293 25.1779 25.2409 25.3094 25.6233 25.1503C25.8376 25.0608 26.0929 24.8719 26.3161 24.4442C26.505 24.4 26.6873 24.3404 26.8619 24.2663C27.5205 24.7857 29.147 25.9138 31.3636 25.9149C34.336 25.9161 37.8829 23.8917 38.0078 21.1846C38.1448 18.189 34.0199 15.9006 31.3636 15.8674V15.8685Z" fill="#FFF5D2"/>
<path d="M26.2663 21.1403C25.9326 21.1823 25.7149 21.4198 25.5945 21.5513C25.0022 22.1999 24.8022 23.6044 24.779 23.7734C24.779 23.7734 23.2321 23.3093 23.2321 26.4685C22.9967 27.874 23.158 28.9259 23.3669 29.6508C23.6332 30.5745 24.1591 31.5999 23.758 32.3756C23.7072 32.4729 23.5812 32.7093 23.3392 32.7756C23.053 32.8541 22.7028 32.6696 22.4243 32.3149C22.5702 32.7845 22.9039 33.1414 23.2906 33.1867C23.8884 33.2574 24.2917 32.5546 24.4254 32.3204C24.8066 31.6563 24.6961 30.9215 24.5757 30.7104C24.5657 30.6928 24.5116 30.6022 24.4519 30.4718C24.4519 30.4718 24.379 30.3149 24.3271 30.1502C24.1945 29.7336 24.2077 29.1469 24.2077 29.1237C24.2144 28.8519 24.2243 28.4983 24.3669 28.0817C24.5945 27.4165 24.9072 27.3392 24.9249 26.8563C24.937 26.5204 24.8674 26.1801 24.8674 26.1801C24.8354 26.0265 24.8033 25.9138 24.8033 25.9138C24.7304 25.6596 24.6862 25.6231 24.695 25.5569C24.7227 25.348 25.2221 25.2607 25.4751 25.1999C25.8453 25.1104 26.3613 24.9138 26.9492 24.4287C27.5094 24.8574 28.9216 25.8176 30.9591 25.958C33.3061 26.1204 35.0519 25.0972 35.7746 24.5944C36.3481 24.1955 36.7635 23.7856 37.0343 23.4906C35.0873 24.6707 33.5083 24.643 32.8332 24.5801C30.3646 24.3469 27.7757 22.4828 27.3271 21.7325C27.2851 21.6618 27.0718 21.3259 26.6851 21.19C26.4729 21.116 26.3017 21.1347 26.2641 21.1392L26.2663 21.1403Z" fill="url(#paint3_linear_1482_2367)"/>
<path d="M20.316 19.6023C20.7743 19.6023 21.1459 19.2308 21.1459 18.7725C21.1459 18.3142 20.7743 17.9426 20.316 17.9426C19.8577 17.9426 19.4862 18.3142 19.4862 18.7725C19.4862 19.2308 19.8577 19.6023 20.316 19.6023Z" fill="#FFF5D2"/>
<path d="M22.0211 17.62C22.2975 17.62 22.5216 17.3959 22.5216 17.1195C22.5216 16.843 22.2975 16.6189 22.0211 16.6189C21.7446 16.6189 21.5205 16.843 21.5205 17.1195C21.5205 17.3959 21.7446 17.62 22.0211 17.62Z" fill="#FFF5D2"/>
<path d="M20.9149 16.3018C21.0577 16.3018 21.1735 16.186 21.1735 16.0432C21.1735 15.9004 21.0577 15.7847 20.9149 15.7847C20.7721 15.7847 20.6564 15.9004 20.6564 16.0432C20.6564 16.186 20.7721 16.3018 20.9149 16.3018Z" fill="#FFF5D2"/>
</g>
<defs>
<filter id="filter0_d_1482_2367" x="0.6" y="0.6" width="58.6563" height="62.8" filterUnits="userSpaceOnUse" color-interpolation-filters="sRGB">
<feFlood flood-opacity="0" result="BackgroundImageFix"/>
<feColorMatrix in="SourceAlpha" type="matrix" values="0 0 0 0 0 0 0 0 0 0 0 0 0 0 0 0 0 0 127 0" result="hardAlpha"/>
<feOffset/>
<feGaussianBlur stdDeviation="1.95"/>
<feComposite in2="hardAlpha" operator="out"/>
<feColorMatrix type="matrix" values="0 0 0 0 0.126635 0 0 0 0 0.109159 0 0 0 0 0.109159 0 0 0 0.2 0"/>
<feBlend mode="normal" in2="BackgroundImageFix" result="effect1_dropShadow_1482_2367"/>
<feBlend mode="normal" in="SourceGraphic" in2="effect1_dropShadow_1482_2367" result="shape"/>
</filter>
<linearGradient id="paint0_linear_1482_2367" x1="41.5968" y1="35.7988" x2="25.8929" y2="35.7414" gradientUnits="userSpaceOnUse">
<stop offset="0.22" stop-color="#752A71"/>
<stop offset="0.37" stop-color="#782C74"/>
<stop offset="0.5" stop-color="#83337D"/>
<stop offset="0.63" stop-color="#943F8D"/>
<stop offset="0.75" stop-color="#AD4FA4"/>
<stop offset="0.86" stop-color="#CE64C1"/>
<stop offset="0.98" stop-color="#F57EE5"/>
<stop offset="1" stop-color="#FF85EE"/>
</linearGradient>
<linearGradient id="paint1_linear_1482_2367" x1="36.4907" y1="26.2994" x2="24.8752" y2="26.5049" gradientUnits="userSpaceOnUse">
<stop stop-color="#5B65E9"/>
<stop offset="1" stop-color="#FFF5D2"/>
</linearGradient>
<linearGradient id="paint2_linear_1482_2367" x1="26.0442" y1="22.5326" x2="35.9868" y2="35.5813" gradientUnits="userSpaceOnUse">
<stop/>
<stop offset="0.92" stop-color="#D4D4D4" stop-opacity="0.17"/>
<stop offset="1" stop-color="white" stop-opacity="0"/>
</linearGradient>
<linearGradient id="paint3_linear_1482_2367" x1="24.5072" y1="22.6552" x2="30.6265" y2="28.9469" gradientUnits="userSpaceOnUse">
<stop stop-color="#5B65E9"/>
<stop offset="1" stop-color="#FFF5D2"/>
</linearGradient>
</defs>
</svg>
