<svg width="52" height="58" viewBox="0 0 52 58" fill="none" xmlns="http://www.w3.org/2000/svg">
<ellipse cx="25.5" cy="55.5" rx="8.5" ry="2.5" fill="#D0D0D0" style="mix-blend-mode:multiply"/>
<path d="M25.9282 55.25C28.6819 55.25 31.6174 54.1346 34.3584 52.4756C37.1347 50.7953 39.8959 48.4465 42.3423 45.7132C47.1807 40.3074 51.1064 33.0258 51.1064 25.9282C51.1064 12.0227 39.8337 0.75 25.9282 0.75C12.0227 0.75 0.75 12.0227 0.75 25.9282C0.75 33.0258 4.67561 40.3074 9.51407 45.7132C11.9605 48.4465 14.7217 50.7953 17.4979 52.4756C20.2389 54.1346 23.1744 55.25 25.9282 55.25ZM48.6064 25.9282C48.6064 32.1745 45.0984 38.8854 40.4795 44.0459C38.173 46.6229 35.5984 48.8028 33.0639 50.3369C30.5255 51.8733 28.047 52.75 25.9282 52.75C23.8093 52.75 21.3309 51.8733 18.7924 50.3369C16.2579 48.8028 13.6833 46.6229 11.3769 44.0459C6.75796 38.8854 3.25 32.1745 3.25 25.9282C3.25 13.4034 13.4034 3.25 25.9282 3.25C38.453 3.25 48.6064 13.4034 48.6064 25.9282Z" fill="white" stroke="#C7C7C7" stroke-width="0.5"/>
<path d="M48.8564 25.9282C48.8564 38.5911 34.6575 53 25.9282 53C17.1989 53 3 38.5911 3 25.9282C3 13.2653 13.2653 3 25.9282 3C38.5911 3 48.8564 13.2653 48.8564 25.9282Z" fill="#3A2F61"/>
<path d="M36.1802 29.5558C36.1802 29.5558 37.7596 29.8005 38.006 30.2214C38.006 30.2214 38.9294 29.0934 40.8705 29.3172C42.1949 29.4702 42.9637 30.5346 42.9993 31.5158C43.0348 32.497 41.9754 34.2184 40.2317 33.2898C40.2317 33.2898 40.873 34.348 40.136 35.4332C39.3991 36.5184 36.461 35.8247 37.1281 33.4782C37.1281 33.4782 35.9693 33.4084 35.0214 32.6377C34.0735 31.8669 36.1802 29.5558 36.1802 29.5558Z" fill="#FFF5D2"/>
<path d="M37.4367 32.825C36.9695 32.7087 35.5434 31.9453 35.5434 31.9453L35.0211 32.6366C35.9689 33.4073 37.1277 33.4771 37.1277 33.4771C36.4607 35.8236 39.3987 36.5173 40.1357 35.4321C40.8727 34.3469 40.2313 33.2887 40.2313 33.2887C40.2313 33.2887 40.354 34.2013 39.5017 34.8045C39.0161 35.1483 36.9524 34.9464 37.438 32.8262L37.4367 32.825Z" fill="url(#paint0_radial_1482_2369)"/>
<path d="M16.5003 23.8005C16.5003 23.8005 17.0533 22.0437 18.2611 21.1408C19.469 20.2379 20.575 19.3839 25.3046 19.2836C30.0342 19.1833 31.8944 19.5344 34.5615 22.4963C37.2286 25.4583 36.7246 27.4158 35.9202 28.5194C35.9202 28.5194 38.3346 32.635 32.8006 36.9513C27.2666 41.2676 18.7148 35.9469 17.2556 33.7887C15.7964 31.6306 14.0355 28.5181 14.9417 27.2139C15.8479 25.9098 16.5015 23.8005 16.5015 23.8005H16.5003Z" fill="url(#paint1_radial_1482_2369)"/>
<path d="M16.6239 24.7351C16.6239 24.7351 17.8575 21.5811 20.2094 21.2349C22.5613 20.8886 22.8311 22.966 23.2161 24.9272C23.6012 26.8884 24.3345 29.3891 20.9034 31.0811C17.4724 32.7731 15.5828 29.9274 15.7373 28.1583C15.8918 26.3892 16.6239 24.7351 16.6239 24.7351Z" fill="#FF9CEC" stroke="url(#paint2_linear_1482_2369)" stroke-miterlimit="10"/>
<path d="M20.7602 24.5971C20.7602 24.5971 17.079 23.1534 15.8552 23.2648C15.8552 23.2648 16.3727 21.9434 15.3243 20.9855C14.4843 20.2184 12.873 20.0679 12.152 21.3758C11.3794 22.7766 12.4438 24.0759 13.1477 24.416C13.1477 24.416 11.8638 24.4429 11.3414 25.3654C10.6351 26.6133 11.0974 28.1475 12.2844 28.5953C14.2599 29.3404 15.2127 27.1871 15.2127 27.1871C15.2127 27.1871 18.3825 28.3518 19.2776 28.4106C19.2776 28.4106 22.2635 27.8037 20.7602 24.5971Z" fill="#FFF5D2"/>
<path d="M39.8661 21.1715C34.8153 21.2449 34.7552 21.3036 34.6828 26.343C34.6092 21.3036 34.5504 21.2437 29.4995 21.1715C34.5504 21.0981 34.6105 21.0394 34.6828 16C34.7564 21.0394 34.8153 21.0993 39.8661 21.1715Z" fill="white"/>
<path d="M30.2526 26.8387C30.7946 26.6368 29.5659 26.8387 29.1086 26.424C28.6512 26.0092 28.2968 26.3408 28.5886 26.5696C28.8805 26.7983 28.2968 27.5654 30.2526 26.8399V26.8387Z" fill="#79187C"/>
<path d="M30.2524 26.8385C30.7944 26.6367 29.231 27.093 29.0299 26.9413C28.7208 26.7064 28.4535 26.4103 28.5872 26.5694C28.8263 26.852 28.2953 27.5653 30.2512 26.8398L30.2524 26.8385Z" fill="#F268E5"/>
<path d="M30.6277 28.9063C30.6277 28.9063 30.4561 29.1901 30.8803 29.2954C31.3046 29.4006 31.0925 28.9271 31.0925 28.9271C31.0925 28.9271 31.0324 28.7289 30.6277 28.9063Z" fill="#79187C"/>
<path d="M30.6276 28.9062C30.6276 28.9062 30.4535 29.1987 30.8765 29.3088C31.1169 29.3712 31.1365 29.2121 31.1365 29.2121C31.1365 29.2121 30.7576 29.4641 30.6276 28.9062Z" fill="#F268E5"/>
<path d="M29.2065 29.6669C29.2065 29.3928 29.6872 29.6045 29.6553 29.8333C29.6234 30.062 29.2065 29.7917 29.2065 29.6669Z" fill="#79187C"/>
<path d="M29.2065 29.667C29.2519 29.3452 29.2494 30.012 29.6553 29.8334C29.6234 30.0622 29.2065 29.7918 29.2065 29.667Z" fill="#F268E5"/>
<path d="M11.3402 25.3655C10.6191 26.6672 11.0961 28.1476 12.2831 28.5954C14.2586 29.3404 15.2114 27.1872 15.2114 27.1872C15.2114 27.1872 18.3812 28.3519 19.2764 28.4106C19.2764 28.4106 20.1826 28.254 20.7098 27.564C20.7098 27.564 15.9202 26.239 15.4284 26.173C13.9287 28.7397 10.6056 27.712 11.3389 25.3655H11.3402Z" fill="url(#paint3_radial_1482_2369)"/>
<defs>
<radialGradient id="paint0_radial_1482_2369" cx="0" cy="0" r="1" gradientUnits="userSpaceOnUse" gradientTransform="translate(37.7556 33.9395) scale(2.39484 2.38938)">
<stop stop-color="#5B65E9"/>
<stop offset="1" stop-color="#FFF5D2"/>
</radialGradient>
<radialGradient id="paint1_radial_1482_2369" cx="0" cy="0" r="1" gradientUnits="userSpaceOnUse" gradientTransform="translate(31.3034 16.6923) scale(75.844 75.6711)">
<stop offset="0.06" stop-color="#FF85EE"/>
<stop offset="0.25" stop-color="#7C1787"/>
<stop offset="0.27" stop-color="#7C1A89"/>
<stop offset="0.28" stop-color="#7D2592"/>
<stop offset="0.3" stop-color="#8036A0"/>
<stop offset="0.31" stop-color="#834FB4"/>
<stop offset="0.32" stop-color="#8666C6"/>
<stop offset="1" stop-color="#6853E0"/>
</radialGradient>
<linearGradient id="paint2_linear_1482_2369" x1="15.6674" y1="26.3978" x2="23.6196" y2="26.3978" gradientUnits="userSpaceOnUse">
<stop stop-color="white" stop-opacity="0"/>
<stop offset="0.15" stop-color="#FFFEFE" stop-opacity="0.01"/>
<stop offset="0.28" stop-color="#FFFEFD" stop-opacity="0.06"/>
<stop offset="0.4" stop-color="#FFFDFC" stop-opacity="0.12"/>
<stop offset="0.52" stop-color="#FFFCFA" stop-opacity="0.22"/>
<stop offset="0.63" stop-color="#FFFBF7" stop-opacity="0.35"/>
<stop offset="0.74" stop-color="#FFFAF3" stop-opacity="0.51"/>
<stop offset="0.85" stop-color="#FFF8EF" stop-opacity="0.69"/>
<stop offset="0.95" stop-color="#FFF6EB" stop-opacity="0.9"/>
<stop offset="1" stop-color="#FFF6E9"/>
</linearGradient>
<radialGradient id="paint3_radial_1482_2369" cx="0" cy="0" r="1" gradientUnits="userSpaceOnUse" gradientTransform="translate(15.8564 27.0587) scale(5.23113 5.2192)">
<stop stop-color="#5B65E9"/>
<stop offset="1" stop-color="#FFF5D2"/>
</radialGradient>
</defs>
</svg>
