<svg width="16" height="16" viewBox="0 0 16 16" fill="none" xmlns="http://www.w3.org/2000/svg">
<path d="M7.99992 1.3335C5.41992 1.3335 3.33325 3.42016 3.33325 6.00016C3.33325 9.50016 7.99992 14.6668 7.99992 14.6668C7.99992 14.6668 12.6666 9.50016 12.6666 6.00016C12.6666 3.42016 10.5799 1.3335 7.99992 1.3335ZM4.66659 6.00016C4.66659 4.16016 6.15992 2.66683 7.99992 2.66683C9.83992 2.66683 11.3333 4.16016 11.3333 6.00016C11.3333 7.92016 9.41325 10.7935 7.99992 12.5868C6.61325 10.8068 4.66659 7.90016 4.66659 6.00016Z" fill="white" fill-opacity="0.8"/>
<path d="M7.99992 7.66683C8.92039 7.66683 9.66659 6.92064 9.66659 6.00016C9.66659 5.07969 8.92039 4.3335 7.99992 4.3335C7.07944 4.3335 6.33325 5.07969 6.33325 6.00016C6.33325 6.92064 7.07944 7.66683 7.99992 7.66683Z" fill="white" fill-opacity="0.8"/>
</svg>
