<svg width="52" height="58" viewBox="0 0 52 58" fill="none" xmlns="http://www.w3.org/2000/svg">
<ellipse cx="25.5" cy="55.5" rx="8.5" ry="2.5" fill="#D0D0D0" style="mix-blend-mode:multiply"/>
<path d="M25.9282 55.25C28.6819 55.25 31.6174 54.1346 34.3584 52.4756C37.1347 50.7953 39.8959 48.4465 42.3423 45.7132C47.1807 40.3074 51.1064 33.0258 51.1064 25.9282C51.1064 12.0227 39.8337 0.75 25.9282 0.75C12.0227 0.75 0.75 12.0227 0.75 25.9282C0.75 33.0258 4.67561 40.3074 9.51407 45.7132C11.9605 48.4465 14.7217 50.7953 17.4979 52.4756C20.2389 54.1346 23.1744 55.25 25.9282 55.25ZM48.6064 25.9282C48.6064 32.1745 45.0984 38.8854 40.4795 44.0459C38.173 46.6229 35.5984 48.8028 33.0639 50.3369C30.5255 51.8733 28.047 52.75 25.9282 52.75C23.8093 52.75 21.3309 51.8733 18.7924 50.3369C16.2579 48.8028 13.6833 46.6229 11.3769 44.0459C6.75796 38.8854 3.25 32.1745 3.25 25.9282C3.25 13.4034 13.4034 3.25 25.9282 3.25C38.453 3.25 48.6064 13.4034 48.6064 25.9282Z" fill="white" stroke="#C7C7C7" stroke-width="0.5"/>
<path d="M48.8564 25.9282C48.8564 38.5911 34.6575 53 25.9282 53C17.1989 53 3 38.5911 3 25.9282C3 13.2653 13.2653 3 25.9282 3C38.5911 3 48.8564 13.2653 48.8564 25.9282Z" fill="#3A2F61"/>
<path d="M20.611 16.5465V22.6651H23.7721V18.0145C23.7721 17.673 24.0492 17.3959 24.3907 17.3959H28.6102C28.9517 17.3959 29.2288 17.673 29.2288 18.0145V22.6651H32.3899V16.5465C32.3899 15.6922 31.6976 15 30.8433 15H22.1575C21.3032 15 20.611 15.6922 20.611 16.5465Z" fill="url(#paint0_linear_1482_2370)"/>
<path d="M37.7079 20.8501H15.2922C14.4381 20.8501 13.7457 21.5425 13.7457 22.3966V37.6242C13.7457 38.4783 14.4381 39.1707 15.2922 39.1707H37.7079C38.562 39.1707 39.2544 38.4783 39.2544 37.6242V22.3966C39.2544 21.5425 38.562 20.8501 37.7079 20.8501Z" fill="url(#paint1_linear_1482_2370)"/>
<path fill-rule="evenodd" clip-rule="evenodd" d="M13.5703 25.8368C13.5703 25.7399 13.6488 25.6614 13.7457 25.6614H39.255C39.3519 25.6614 39.4304 25.7399 39.4304 25.8368C39.4304 25.9336 39.3519 26.0121 39.255 26.0121H13.7457C13.6488 26.0121 13.5703 25.9336 13.5703 25.8368Z" fill="#F8C6F3"/>
<path d="M19.9396 24.438H19.2486C19.1461 24.438 19.063 24.5211 19.063 24.6236V26.3767C19.063 26.4792 19.1461 26.5623 19.2486 26.5623H19.9396C20.0421 26.5623 20.1252 26.4792 20.1252 26.3767V24.6236C20.1252 24.5211 20.0421 24.438 19.9396 24.438Z" fill="#F8C6F3"/>
<path d="M33.7524 24.438H33.0614C32.9589 24.438 32.8758 24.5211 32.8758 24.6236V26.3767C32.8758 26.4792 32.9589 26.5623 33.0614 26.5623H33.7524C33.8548 26.5623 33.9379 26.4792 33.9379 26.3767V24.6236C33.9379 24.5211 33.8548 24.438 33.7524 24.438Z" fill="#F8C6F3"/>
<path d="M31.1935 30.452H28.6665C28.5638 30.452 28.4809 30.3691 28.4809 30.2664V27.9244C28.4809 27.8217 28.398 27.7388 28.2953 27.7388H24.705C24.6023 27.7388 24.5194 27.8217 24.5194 27.9244V30.2664C24.5194 30.3691 24.4365 30.452 24.3338 30.452H21.8068C21.7041 30.452 21.6212 30.5349 21.6212 30.6375V34.2279C21.6212 34.3306 21.7041 34.4135 21.8068 34.4135H24.3338C24.4365 34.4135 24.5194 34.4964 24.5194 34.5991V36.9411C24.5194 37.0438 24.6023 37.1267 24.705 37.1267H28.2953C28.398 37.1267 28.4809 37.0438 28.4809 36.9411V34.5991C28.4809 34.4964 28.5638 34.4135 28.6665 34.4135H31.1935C31.2962 34.4135 31.3791 34.3306 31.3791 34.2279V30.6375C31.3791 30.5349 31.2962 30.452 31.1935 30.452Z" fill="url(#paint2_linear_1482_2370)"/>
<defs>
<linearGradient id="paint0_linear_1482_2370" x1="28.6145" y1="25.0876" x2="25.824" y2="17.6662" gradientUnits="userSpaceOnUse">
<stop stop-color="#5B65E8"/>
<stop offset="0.23" stop-color="#7D6BE9"/>
<stop offset="0.75" stop-color="#D37BEB"/>
<stop offset="1" stop-color="#FF84ED"/>
</linearGradient>
<linearGradient id="paint1_linear_1482_2370" x1="39.2198" y1="40.7753" x2="17.1931" y2="22.1331" gradientUnits="userSpaceOnUse">
<stop stop-color="#5B65E8"/>
<stop offset="0.1" stop-color="#7469E8"/>
<stop offset="0.32" stop-color="#A573EA"/>
<stop offset="0.52" stop-color="#CC7AEB"/>
<stop offset="0.71" stop-color="#E87FEC"/>
<stop offset="0.88" stop-color="#F982EC"/>
<stop offset="1" stop-color="#FF84ED"/>
</linearGradient>
<linearGradient id="paint2_linear_1482_2370" x1="31.9439" y1="32.4531" x2="22.1965" y2="32.4173" gradientUnits="userSpaceOnUse">
<stop stop-color="#212E6D"/>
<stop offset="0.14" stop-color="#243073"/>
<stop offset="0.35" stop-color="#2C3986"/>
<stop offset="0.59" stop-color="#3B46A4"/>
<stop offset="0.86" stop-color="#4F59CE"/>
<stop offset="1" stop-color="#5B65E8"/>
</linearGradient>
</defs>
</svg>
