<svg width="52" height="58" viewBox="0 0 52 58" fill="none" xmlns="http://www.w3.org/2000/svg">
<ellipse cx="25.5" cy="55.5" rx="8.5" ry="2.5" fill="#D0D0D0" style="mix-blend-mode:multiply"/>
<path d="M25.9282 55.25C28.6819 55.25 31.6174 54.1346 34.3584 52.4756C37.1347 50.7953 39.8959 48.4465 42.3423 45.7132C47.1807 40.3074 51.1064 33.0258 51.1064 25.9282C51.1064 12.0227 39.8337 0.75 25.9282 0.75C12.0227 0.75 0.75 12.0227 0.75 25.9282C0.75 33.0258 4.67561 40.3074 9.51407 45.7132C11.9605 48.4465 14.7217 50.7953 17.4979 52.4756C20.2389 54.1346 23.1744 55.25 25.9282 55.25ZM48.6064 25.9282C48.6064 32.1745 45.0984 38.8854 40.4795 44.0459C38.173 46.6229 35.5984 48.8028 33.0639 50.3369C30.5255 51.8733 28.047 52.75 25.9282 52.75C23.8093 52.75 21.3309 51.8733 18.7924 50.3369C16.2579 48.8028 13.6833 46.6229 11.3769 44.0459C6.75796 38.8854 3.25 32.1745 3.25 25.9282C3.25 13.4034 13.4034 3.25 25.9282 3.25C38.453 3.25 48.6064 13.4034 48.6064 25.9282Z" fill="white" stroke="#C7C7C7" stroke-width="0.5"/>
<path d="M48.8564 25.9282C48.8564 38.5911 34.6575 53 25.9282 53C17.1989 53 3 38.5911 3 25.9282C3 13.2653 13.2653 3 25.9282 3C38.5911 3 48.8564 13.2653 48.8564 25.9282Z" fill="#3A2F61"/>
<path d="M34.2501 19.504C33.8443 19.2282 33.7146 18.7068 33.6674 18.3158C33.6713 18.1827 33.6975 16.0329 32.0252 14.9618C30.762 14.1527 29.3783 14.5022 28.9123 14.6198C28.6766 14.6792 27.3369 15.0105 26.4565 16.205C24.8376 18.4013 26.2209 21.6854 26.2209 21.6854C25.8373 21.8934 25.1645 22.3469 24.9055 23.1424C24.4411 24.5708 25.6686 25.9994 25.7868 26.1329C26.4441 26.8768 27.1737 27.0849 27.0927 27.4005C27.0328 27.6329 26.6056 27.9343 25.6724 28.0291C23.3363 28.266 28.8893 29.6156 28.8893 29.6156C28.8893 29.6156 30.3087 31.1806 32.1538 29.424C32.1538 29.424 34.6683 30.2159 34.9871 29.2077C35.1275 28.7634 34.8588 28.1509 35.2136 27.8536C35.4164 27.6839 35.7213 27.7381 35.8892 27.7707C37.2086 28.0263 38.0068 28.4704 38.6894 28.6188C40.4928 29.0109 42.7193 27.6049 42.668 26.7496C42.6664 26.72 42.6558 26.5899 42.5272 26.4214C41.7161 25.3574 38.8573 26.2489 38.6403 26.3186C38.7601 26.17 40.1057 24.4462 39.4697 22.408C38.9595 20.7712 37.3512 19.5078 35.9784 19.5344C35.3247 19.547 34.7612 19.8515 34.2506 19.5038L34.2501 19.504Z" fill="#5B65E9"/>
<path d="M30.2584 27.9559C31.2312 27.4905 31.2023 27.0545 32.5255 25.7937C33.3152 25.0413 36.0707 22.4145 37.8173 23.1462C38.3018 23.3494 38.6978 23.8064 38.7827 24.2854C38.9251 25.0924 38.1806 25.9491 37.4692 26.3574C36.451 26.9409 35.7921 26.4503 35.1175 27.0733C34.5065 27.6377 34.8375 28.2773 34.2893 28.6047C33.5508 29.046 32.7308 28.0144 31.7479 28.4199C31.0386 28.7128 31.1085 29.3979 30.4466 29.5356C29.9196 29.6452 29.6821 29.2511 28.7148 28.8749C27.4958 28.401 26.512 28.4338 26.5179 28.3589C26.5265 28.2526 28.489 28.8022 30.2588 27.9556L30.2584 27.9559Z" fill="url(#paint0_linear_1482_2371)"/>
<path d="M28.4021 22.7804C28.5576 22.7832 28.6861 22.8124 28.775 22.8389C28.5567 22.551 27.739 21.4032 27.9558 19.912C28.1565 18.531 29.2202 17.0266 30.6198 16.8995C30.7894 16.8839 31.7773 16.7807 32.2698 17.3653C32.7434 17.9279 32.3538 18.6415 32.8246 19.2378C33.1817 19.6899 33.807 19.7883 34.2525 19.806C33.4268 19.9144 32.176 20.2344 31.1635 21.2205C30.3254 22.0364 29.9977 22.9633 29.5648 24.2319C29.3437 24.8809 29.0739 25.8234 28.9161 27.0061C27.1893 26.4336 26.3592 24.9923 26.6543 24.0703C26.8413 23.4856 27.5907 22.7662 28.4009 22.7805L28.4021 22.7804Z" fill="url(#paint1_linear_1482_2371)"/>
<path d="M42.1128 26.8092C42.096 26.5356 41.7194 26.3644 41.7001 26.3561C41.0856 26.0859 40.454 26.7227 39.3087 27.1993C38.8574 27.3868 38.2024 27.6014 37.3403 27.6931C37.7113 27.8686 38.3451 28.1104 39.1454 28.1177C40.5804 28.1302 42.1475 27.3844 42.1123 26.8095L42.1128 26.8092Z" fill="url(#paint2_linear_1482_2371)"/>
<g filter="url(#filter0_f_1482_2371)">
<ellipse cx="26.9191" cy="29.8588" rx="8.47278" ry="7.4989" fill="url(#paint3_radial_1482_2371)"/>
</g>
<path d="M31.9803 31.2198L20.2911 27.069C19.0342 26.9123 17.795 27.4098 17.0611 28.3853C16.1727 29.5679 16.168 31.2638 17.081 32.5479C21.0858 34.4755 25.09 36.4037 29.0947 38.3313L31.9809 31.2198H31.9803Z" fill="url(#paint4_linear_1482_2371)"/>
<path d="M33.2249 35.7403C33.9269 33.7218 33.3536 31.6873 31.9446 31.1959C30.5355 30.7046 28.8242 31.9426 28.1223 33.961C27.4203 35.9794 27.9936 38.014 29.4026 38.5054C30.8117 38.9967 32.523 37.7587 33.2249 35.7403Z" fill="url(#paint5_linear_1482_2371)"/>
<path d="M20.2906 27.0691C17.658 26.1745 15.0249 25.2799 12.3923 24.3859C12.2383 24.3337 12.0766 24.3067 11.9144 24.3079C10.7056 24.3167 9.62389 25.0288 9.19518 26.0982C8.88009 26.8855 8.9533 27.7812 9.36561 28.5385C9.51085 28.8054 9.73926 29.0178 10.0128 29.1492C12.3689 30.2825 14.7244 31.4153 17.0805 32.5486C17.0161 32.4553 15.9508 30.8545 16.7034 29.1322C17.2914 27.7871 18.7362 26.9447 20.2906 27.0697V27.0691Z" fill="url(#paint6_linear_1482_2371)"/>
<path d="M17.2282 32.3318C17.2282 32.3318 15.5614 29.9555 17.6411 27.8055C17.6411 27.8055 18.7457 26.7103 20.4383 26.8523" stroke="#F9C7F4" stroke-width="0.255919" stroke-miterlimit="10" stroke-linecap="round"/>
<defs>
<filter id="filter0_f_1482_2371" x="17.4724" y="21.386" width="18.8933" height="16.9456" filterUnits="userSpaceOnUse" color-interpolation-filters="sRGB">
<feFlood flood-opacity="0" result="BackgroundImageFix"/>
<feBlend mode="normal" in="SourceGraphic" in2="BackgroundImageFix" result="shape"/>
<feGaussianBlur stdDeviation="0.486942" result="effect1_foregroundBlur_1482_2371"/>
</filter>
<linearGradient id="paint0_linear_1482_2371" x1="31.9849" y1="24.0524" x2="33.3643" y2="28.747" gradientUnits="userSpaceOnUse">
<stop stop-color="#212E6D"/>
<stop offset="0.14" stop-color="#243073"/>
<stop offset="0.35" stop-color="#2C3986"/>
<stop offset="0.59" stop-color="#3B46A4"/>
<stop offset="0.85" stop-color="#4E59CE"/>
<stop offset="1" stop-color="#5B65E9"/>
</linearGradient>
<linearGradient id="paint1_linear_1482_2371" x1="28.0143" y1="17.5272" x2="31.4397" y2="24.3702" gradientUnits="userSpaceOnUse">
<stop stop-color="#212E6D"/>
<stop offset="0.14" stop-color="#243073"/>
<stop offset="0.35" stop-color="#2C3986"/>
<stop offset="0.59" stop-color="#3B46A4"/>
<stop offset="0.85" stop-color="#4E59CE"/>
<stop offset="1" stop-color="#5B65E9"/>
</linearGradient>
<linearGradient id="paint2_linear_1482_2371" x1="39.428" y1="25.6022" x2="39.886" y2="28.1329" gradientUnits="userSpaceOnUse">
<stop stop-color="#212E6D"/>
<stop offset="0.14" stop-color="#243073"/>
<stop offset="0.35" stop-color="#2C3986"/>
<stop offset="0.59" stop-color="#3B46A4"/>
<stop offset="0.85" stop-color="#4E59CE"/>
<stop offset="1" stop-color="#5B65E9"/>
</linearGradient>
<radialGradient id="paint3_radial_1482_2371" cx="0" cy="0" r="1" gradientUnits="userSpaceOnUse" gradientTransform="translate(26.9191 29.8588) rotate(90) scale(7.4989 8.47278)">
<stop stop-color="#181818"/>
<stop offset="1" stop-color="#181818" stop-opacity="0"/>
</radialGradient>
<linearGradient id="paint4_linear_1482_2371" x1="21.1713" y1="36.8912" x2="26.644" y2="26.6669" gradientUnits="userSpaceOnUse">
<stop offset="0.14" stop-color="#5B65E9"/>
<stop offset="0.21" stop-color="#7F6CEA"/>
<stop offset="0.29" stop-color="#A673EB"/>
<stop offset="0.38" stop-color="#C679EC"/>
<stop offset="0.47" stop-color="#DF7EED"/>
<stop offset="0.56" stop-color="#F182ED"/>
<stop offset="0.66" stop-color="#FB84ED"/>
<stop offset="0.78" stop-color="#FF85EE"/>
</linearGradient>
<linearGradient id="paint5_linear_1482_2371" x1="32.4476" y1="30.9393" x2="27.7028" y2="41.373" gradientUnits="userSpaceOnUse">
<stop stop-color="#5B65E9"/>
<stop offset="0.17" stop-color="#7D6BEA"/>
<stop offset="0.55" stop-color="#D37CEC"/>
<stop offset="0.73" stop-color="#FF85EE"/>
</linearGradient>
<linearGradient id="paint6_linear_1482_2371" x1="13.0436" y1="32.8202" x2="15.838" y2="22.541" gradientUnits="userSpaceOnUse">
<stop offset="0.12" stop-color="#5B65E9"/>
<stop offset="0.21" stop-color="#6E76E6"/>
<stop offset="0.39" stop-color="#A1A2DF"/>
<stop offset="0.66" stop-color="#F2EAD3"/>
<stop offset="0.69" stop-color="#FFF5D2"/>
</linearGradient>
</defs>
</svg>
