<svg width="52" height="58" viewBox="0 0 52 58" fill="none" xmlns="http://www.w3.org/2000/svg">
<ellipse cx="25.5" cy="55.5" rx="8.5" ry="2.5" fill="#D0D0D0" style="mix-blend-mode:multiply"/>
<path d="M25.9282 55.25C28.6819 55.25 31.6174 54.1346 34.3584 52.4756C37.1347 50.7953 39.8959 48.4465 42.3423 45.7132C47.1807 40.3074 51.1064 33.0258 51.1064 25.9282C51.1064 12.0227 39.8337 0.75 25.9282 0.75C12.0227 0.75 0.75 12.0227 0.75 25.9282C0.75 33.0258 4.67561 40.3074 9.51407 45.7132C11.9605 48.4465 14.7217 50.7953 17.4979 52.4756C20.2389 54.1346 23.1744 55.25 25.9282 55.25ZM48.6064 25.9282C48.6064 32.1745 45.0984 38.8854 40.4795 44.0459C38.173 46.6229 35.5984 48.8028 33.0639 50.3369C30.5255 51.8733 28.047 52.75 25.9282 52.75C23.8093 52.75 21.3309 51.8733 18.7924 50.3369C16.2579 48.8028 13.6833 46.6229 11.3769 44.0459C6.75796 38.8854 3.25 32.1745 3.25 25.9282C3.25 13.4034 13.4034 3.25 25.9282 3.25C38.453 3.25 48.6064 13.4034 48.6064 25.9282Z" fill="white" stroke="#C7C7C7" stroke-width="0.5"/>
<path d="M48.8564 25.9282C48.8564 38.5911 34.6575 53 25.9282 53C17.1989 53 3 38.5911 3 25.9282C3 13.2653 13.2653 3 25.9282 3C38.5911 3 48.8564 13.2653 48.8564 25.9282Z" fill="#3A2F61"/>
<path d="M32.4023 20.0009H37.5544C37.5544 20.0009 39.1304 20.0196 39.5544 21.7071C39.5544 21.7071 41.0981 28.8184 41.0734 28.8346C41.0487 28.8508 41.0981 29.5924 40.2586 29.7635C40.2586 29.7635 39.2147 29.9593 38.9465 29.3233L37.5833 23.3981C37.5833 23.3981 37.4973 23.3206 37.4207 23.4305L39.1364 32.0462C39.1364 32.0462 39.1568 32.3272 38.8963 32.34H37.5714V39.2988C37.5714 39.2988 37.5893 39.7876 36.3283 39.9723C36.3283 39.9723 35.6216 39.9834 35.144 39.4836V32.277C35.144 32.277 34.9788 32.1109 34.7872 32.277V39.4453C34.7872 39.4453 34.3487 40.0788 33.5015 39.9723C33.5015 39.9723 32.4687 39.94 32.284 39.3636C32.0992 38.7871 32.284 32.4507 32.284 32.4507H31.1481C31.1481 32.4507 30.7079 32.4924 30.6969 32.0139L32.6211 23.5735C32.6211 23.5735 32.5598 23.3768 32.4074 23.4935C32.255 23.6101 31.0596 29.4144 31.0596 29.4144C31.0596 29.4144 30.6739 30.0871 29.8548 29.8384C29.8548 29.8384 28.9923 29.6886 28.9999 28.9666C29.0076 28.2445 30.5649 21.513 30.5649 21.513C30.5649 21.513 30.805 20.0443 32.4032 20L32.4023 20.0009Z" fill="url(#paint0_linear_1684_4097)"/>
<path d="M31.8745 19.9921H37.0266C37.0266 19.9921 38.6026 20.0108 39.0266 21.6984C39.0266 21.6984 40.5703 28.8096 40.5456 28.8258C40.5209 28.842 40.5703 29.5836 39.7307 29.7547C39.7307 29.7547 38.6869 29.9506 38.4187 29.3145L37.0555 23.3893C37.0555 23.3893 36.9695 23.3118 36.8929 23.4217L38.6085 32.0374C38.6085 32.0374 38.629 32.3184 38.3684 32.3312H37.0436V39.2901C37.0436 39.2901 37.0615 39.7788 35.8005 39.9635C35.8005 39.9635 35.0938 39.9746 34.6161 39.4748V32.2682C34.6161 32.2682 34.4509 32.1022 34.2594 32.2682V39.4365C34.2594 39.4365 33.8209 40.07 32.9737 39.9635C32.9737 39.9635 31.9409 39.9312 31.7561 39.3548C31.5714 38.7783 31.7561 32.4419 31.7561 32.4419H30.6203C30.6203 32.4419 30.1801 32.4836 30.169 32.0051L32.0933 23.5647C32.0933 23.5647 32.032 23.368 31.8796 23.4847C31.7272 23.6013 30.5317 29.4056 30.5317 29.4056C30.5317 29.4056 30.146 30.0783 29.3269 29.8297C29.3269 29.8297 28.4644 29.6798 28.4721 28.9578C28.4798 28.2357 30.0371 21.5042 30.0371 21.5042C30.0371 21.5042 30.2772 20.0355 31.8753 19.9912L31.8745 19.9921Z" fill="url(#paint1_linear_1684_4097)"/>
<path d="M18.0043 19.5736C19.2424 19.5736 20.2462 18.5698 20.2462 17.3317C20.2462 16.0936 19.2424 15.0898 18.0043 15.0898C16.7662 15.0898 15.7625 16.0936 15.7625 17.3317C15.7625 18.5698 16.7662 19.5736 18.0043 19.5736Z" fill="url(#paint2_linear_1684_4097)"/>
<path d="M34.9616 19.5736C36.1997 19.5736 37.2034 18.5698 37.2034 17.3317C37.2034 16.0936 36.1997 15.0898 34.9616 15.0898C33.7234 15.0898 32.7197 16.0936 32.7197 17.3317C32.7197 18.5698 33.7234 19.5736 34.9616 19.5736Z" fill="#B9C8D0"/>
<path d="M14.5721 20H21.3709C21.3709 20 23.0994 20.1464 23.2782 21.8749V29.228C23.2782 29.228 23.0662 30.0104 22.0878 30.076C22.0878 30.076 21.2321 30.1816 20.9707 29.3182V22.9102C20.9707 22.9102 20.9188 22.8115 20.8039 22.8072C20.6889 22.803 20.6191 22.9009 20.6191 22.9009V39.2665C20.6191 39.2665 20.5008 40.1035 19.479 40.0762C19.479 40.0762 18.4624 40.1086 18.2563 39.4078V29.245C18.2563 29.245 18.1967 28.9027 17.9737 28.941C17.9737 28.941 17.7727 28.9248 17.7889 29.3429C17.8051 29.761 17.7889 39.5713 17.7889 39.5713C17.7889 39.5713 17.4577 40.1895 16.4385 40.0771C15.4193 39.9647 15.2729 39.4836 15.2729 39.4836V23.0328C15.2729 23.0328 15.0771 22.8532 14.8982 23.0218V29.2773C14.8982 29.2773 14.8982 29.881 14.0264 29.9619C14.0264 29.9619 12.9254 30.1169 12.7305 29.4323V21.5982C12.7305 21.5982 12.9425 20.1141 14.573 20H14.5721Z" fill="url(#paint3_linear_1684_4097)"/>
<path d="M17.5508 19.4764C18.789 19.4764 19.7927 18.4727 19.7927 17.2345C19.7927 15.9964 18.789 14.9927 17.5508 14.9927C16.3127 14.9927 15.309 15.9964 15.309 17.2345C15.309 18.4727 16.3127 19.4764 17.5508 19.4764Z" fill="url(#paint4_linear_1684_4097)"/>
<path d="M34.5076 19.4764C35.7457 19.4764 36.7495 18.4727 36.7495 17.2345C36.7495 15.9964 35.7457 14.9927 34.5076 14.9927C33.2695 14.9927 32.2657 15.9964 32.2657 17.2345C32.2657 18.4727 33.2695 19.4764 34.5076 19.4764Z" fill="url(#paint5_linear_1684_4097)"/>
<path d="M14.1188 19.939H20.9176C20.9176 19.939 22.646 20.0854 22.8248 21.8138V29.1669C22.8248 29.1669 22.6128 29.9494 21.6345 30.015C21.6345 30.015 20.7788 30.1205 20.5174 29.2572V22.8492C20.5174 22.8492 20.4654 22.7504 20.3505 22.7462C20.2356 22.7419 20.1657 22.8398 20.1657 22.8398V39.2055C20.1657 39.2055 20.0474 40.0424 19.0256 40.0152C19.0256 40.0152 18.009 40.0475 17.803 39.3468V29.184C17.803 29.184 17.7434 28.8417 17.5203 28.88C17.5203 28.88 17.3194 28.8638 17.3355 29.2819C17.3517 29.6999 17.3355 39.5103 17.3355 39.5103C17.3355 39.5103 17.0043 40.1284 15.9851 40.016C14.966 39.9036 14.8195 39.4226 14.8195 39.4226V22.9718C14.8195 22.9718 14.6237 22.7922 14.4449 22.9607V29.2163C14.4449 29.2163 14.4449 29.82 13.573 29.9009C13.573 29.9009 12.4721 30.0558 12.2771 29.3713V21.5371C12.2771 21.5371 12.4891 20.0531 14.1196 19.939H14.1188Z" fill="url(#paint6_linear_1684_4097)"/>
<path d="M26.116 16.8618H27.2654V39.609H26.116C26.116 39.609 25.9968 16.7426 26.116 16.8618Z" fill="#B9C8D0"/>
<path d="M25.7076 16.8691H26.8571V39.6163H25.7076C25.7076 39.6163 25.5884 16.7499 25.7076 16.8691Z" fill="url(#paint7_linear_1684_4097)"/>
<defs>
<linearGradient id="paint0_linear_1684_4097" x1="32.1682" y1="24.0154" x2="42.5141" y2="41.7561" gradientUnits="userSpaceOnUse">
<stop offset="0.18" stop-color="#FFF5D2"/>
<stop offset="0.37" stop-color="#D4CFD8"/>
<stop offset="0.67" stop-color="#9396E1"/>
<stop offset="0.89" stop-color="#6A72E6"/>
<stop offset="1" stop-color="#5B65E9"/>
</linearGradient>
<linearGradient id="paint1_linear_1684_4097" x1="41.3459" y1="41.7218" x2="28.8876" y2="18.1487" gradientUnits="userSpaceOnUse">
<stop offset="0.14" stop-color="#5B65E9"/>
<stop offset="0.27" stop-color="#6E68E9"/>
<stop offset="0.55" stop-color="#A272EB"/>
<stop offset="0.95" stop-color="#F482ED"/>
<stop offset="1" stop-color="#FF85EE"/>
</linearGradient>
<linearGradient id="paint2_linear_1684_4097" x1="15.0447" y1="14.5534" x2="25.9491" y2="24.7912" gradientUnits="userSpaceOnUse">
<stop offset="0.18" stop-color="#FFF5D2"/>
<stop offset="0.25" stop-color="#E3DCD5"/>
<stop offset="0.48" stop-color="#8187E3"/>
<stop offset="0.59" stop-color="#5B65E9"/>
</linearGradient>
<linearGradient id="paint3_linear_1684_4097" x1="13.5666" y1="20.9196" x2="27.4869" y2="44.2296" gradientUnits="userSpaceOnUse">
<stop stop-color="#FFF5D2"/>
<stop offset="0.81" stop-color="#7980E4"/>
<stop offset="0.99" stop-color="#5B65E9"/>
</linearGradient>
<linearGradient id="paint4_linear_1684_4097" x1="19.5159" y1="20.3116" x2="15.2272" y2="13.5963" gradientUnits="userSpaceOnUse">
<stop stop-color="#5B65E9"/>
<stop offset="0.04" stop-color="#6667E9"/>
<stop offset="0.2" stop-color="#9470EA"/>
<stop offset="0.37" stop-color="#BA77EB"/>
<stop offset="0.53" stop-color="#D87DEC"/>
<stop offset="0.7" stop-color="#ED81ED"/>
<stop offset="0.85" stop-color="#FA84ED"/>
<stop offset="1" stop-color="#FF85EE"/>
</linearGradient>
<linearGradient id="paint5_linear_1684_4097" x1="36.9291" y1="20.3713" x2="32.4743" y2="14.601" gradientUnits="userSpaceOnUse">
<stop stop-color="#5B65E9"/>
<stop offset="0.21" stop-color="#836CEA"/>
<stop offset="0.59" stop-color="#C579EC"/>
<stop offset="0.86" stop-color="#EF81ED"/>
<stop offset="1" stop-color="#FF85EE"/>
</linearGradient>
<linearGradient id="paint6_linear_1684_4097" x1="27.4226" y1="42.1038" x2="7.98752" y2="15.5992" gradientUnits="userSpaceOnUse">
<stop offset="0.19" stop-color="#5B65E9"/>
<stop offset="0.27" stop-color="#7069E9"/>
<stop offset="0.52" stop-color="#AD75EB"/>
<stop offset="0.73" stop-color="#D97DEC"/>
<stop offset="0.89" stop-color="#F483ED"/>
<stop offset="0.98" stop-color="#FF85EE"/>
</linearGradient>
<linearGradient id="paint7_linear_1684_4097" x1="29.8882" y1="40.0608" x2="22.4858" y2="15.8006" gradientUnits="userSpaceOnUse">
<stop stop-color="#6F5AB7"/>
<stop offset="0.13" stop-color="#765CB9"/>
<stop offset="0.32" stop-color="#8961C1"/>
<stop offset="0.54" stop-color="#A96BCD"/>
<stop offset="0.79" stop-color="#D578DE"/>
<stop offset="1" stop-color="#FF85EE"/>
</linearGradient>
</defs>
</svg>
