<svg width="118" height="68" viewBox="0 0 118 68" fill="none" xmlns="http://www.w3.org/2000/svg">
<g clip-path="url(#clip0_501_1889)">
<path d="M21.6234 28.4847C22.2627 28.7033 22.6688 29.0733 22.841 29.5947C23.0131 30.1168 22.987 30.6479 22.7641 31.189C22.5411 31.731 22.1957 32.2357 21.7283 32.7044C21.2602 33.1728 20.7769 33.4638 20.2792 33.5776C19.658 33.7136 18.8274 33.7776 17.7876 33.768C16.7477 33.7591 15.8836 33.7568 15.196 33.762C14.7628 33.7659 14.4493 33.8014 14.2563 33.8679C14.2147 33.8823 14.1785 33.898 14.1476 33.9156C14.0952 33.9456 14.0598 33.9794 14.0399 34.0174C13.918 34.2525 13.8455 34.5886 13.8232 35.0257C13.8001 35.4627 13.8063 35.871 13.8438 36.2487C13.8804 36.6271 13.8715 37.1653 13.8168 37.8615C13.761 38.5584 13.634 39.2599 13.4346 39.9672C13.2246 40.722 12.7674 41.3613 12.0625 41.8872C11.3577 42.4132 10.5712 42.7371 9.70489 42.8585C8.83761 42.9805 7.99335 42.9737 7.17013 42.8358C6.34751 42.699 5.6646 42.3497 5.12277 41.7892C4.57999 41.2294 4.31996 40.5119 4.34251 39.6376C4.45917 38.433 4.55638 37.6783 4.63464 37.3713C4.71196 37.065 4.91138 36.3576 5.2337 35.2495C5.55506 34.142 5.8474 32.974 6.11193 31.7476C6.35024 30.6387 6.53695 29.3581 6.67206 27.9059C6.80716 26.4536 6.99648 25.2676 7.24235 24.3483C7.48744 23.4289 7.95164 22.4284 8.634 21.3475C9.1322 20.5719 10.1931 19.9848 11.8184 19.5856C13.4428 19.1871 15.2092 18.9837 17.117 18.9777C19.0241 18.9715 20.8052 19.028 22.4607 19.1496C24.1154 19.271 25.3834 19.4296 26.2645 19.6269C27.4373 19.8974 28.0951 20.5826 28.237 21.6832C28.3789 22.7837 28.0612 23.7907 27.2852 24.7053C26.5075 25.6204 25.5729 25.9783 24.4789 25.7792C22.7857 25.5046 21.0753 25.3944 19.347 25.4495C17.6184 25.5052 16.43 25.6602 15.7842 25.9142C15.4984 26.0302 15.2762 26.4293 15.118 27.1132C14.9588 27.7976 15.016 28.1642 15.2893 28.2137C15.397 28.2622 16.3098 28.2583 18.026 28.203C19.743 28.1479 20.9414 28.2411 21.6237 28.4831L21.6234 28.4847Z" fill="url(#paint0_linear_501_1889)"/>
<path d="M21.6232 28.4847C21.5801 28.4693 21.5352 28.4544 21.4884 28.4407C21.4894 28.4434 21.4912 28.4463 21.4921 28.4497C21.6641 28.9719 21.638 29.5029 21.4152 30.0441C21.1922 30.586 20.8467 31.0908 20.3794 31.5594C19.9112 32.0279 19.4279 32.3189 18.9302 32.4326C18.3091 32.5686 17.4784 32.6326 16.4387 32.623C15.3987 32.6142 14.5346 32.6119 13.847 32.6171C13.4139 32.621 13.1003 32.6565 12.9074 32.7229C12.8657 32.7374 12.8296 32.753 12.7987 32.7706C12.7462 32.8006 12.7109 32.8344 12.691 32.8724C12.5691 33.1076 12.4966 33.4436 12.4743 33.8807C12.4512 34.3177 12.4574 34.726 12.4949 35.1038C12.5315 35.4821 12.5226 36.0203 12.4678 36.7166C12.4121 37.4135 12.2851 38.1149 12.0856 38.8222C11.8756 39.5771 11.4185 40.2163 10.7136 40.7423C10.0087 41.2682 9.22228 41.5921 8.35595 41.7136C7.48867 41.8356 6.64441 41.8287 5.82118 41.6909C5.44923 41.6292 5.10595 41.5232 4.79099 41.3745C4.88664 41.5209 4.99624 41.6597 5.12184 41.789C5.66367 42.3495 6.34658 42.6988 7.1692 42.8357C7.99165 42.9733 8.83668 42.9804 9.70396 42.8583C10.5705 42.7361 11.3569 42.4122 12.0616 41.887C12.7663 41.3619 13.2237 40.7218 13.4337 39.967C13.6331 39.2597 13.7601 38.5583 13.8158 37.8614C13.8706 37.1651 13.8803 36.6271 13.8429 36.2486C13.8054 35.8708 13.7992 35.4625 13.8223 35.0255C13.8454 34.5886 13.9179 34.2525 14.039 34.0172C14.0581 33.979 14.0944 33.9446 14.1467 33.9154C14.1776 33.8978 14.2138 33.8821 14.2554 33.8677C14.4484 33.8013 14.7619 33.7658 15.1951 33.7619C15.8827 33.7567 16.7461 33.758 17.7867 33.7678C18.8264 33.7774 19.6571 33.7134 20.2783 33.5774C20.776 33.4636 21.2593 33.1726 21.7274 32.7042C22.1947 32.2356 22.541 31.7309 22.7632 31.1889C22.986 30.6477 23.0123 30.1159 22.8401 29.5945C22.6679 29.0732 22.2625 28.7033 21.6224 28.4845L21.6232 28.4847Z" fill="white"/>
<path d="M28.2365 21.6847C28.1111 20.7153 27.5852 20.0685 26.6599 19.7437C26.7724 19.9796 26.849 20.2443 26.8877 20.5397C27.0296 21.6403 26.7119 22.6473 25.9358 23.5619C25.1581 24.4769 24.2235 24.8348 23.1296 24.6358C21.4363 24.3611 19.726 24.251 17.9976 24.306C16.2691 24.3618 15.0806 24.5168 14.4348 24.7708C14.1491 24.8868 13.9269 25.2859 13.7686 25.9697C13.6095 26.6542 13.6644 26.8184 13.9379 26.8671C14.0062 26.8979 14.7412 26.1196 15.4588 26.108C15.6173 25.4341 15.4999 26.0298 15.7838 25.9149C16.4304 25.6612 17.618 25.506 19.3466 25.4502C21.0751 25.3944 22.7855 25.5045 24.4785 25.78C25.5725 25.979 26.5071 25.6211 27.2848 24.7061C28.0616 23.7916 28.3787 22.7837 28.2367 21.6839L28.2365 21.6847Z" fill="white"/>
<path d="M14.0193 33.963C13.8974 34.1981 13.8461 34.5895 13.823 35.0265C13.7999 35.4634 13.8061 35.8718 13.8436 36.2495C13.8802 36.6278 13.8713 37.166 13.8165 37.8623C13.7608 38.5592 13.6338 39.2606 13.4344 39.968C13.2243 40.7228 12.7672 41.362 12.0623 41.888C11.3574 42.414 10.571 42.7379 9.70465 42.8593C8.83737 42.9813 7.99311 42.9744 7.16989 42.8366C6.34727 42.6997 5.66435 42.3505 5.12253 41.79C4.57975 41.2301 4.31972 40.5127 4.34227 39.6384C4.45893 38.4337 4.55613 37.6791 4.6344 37.3721C4.71171 37.0657 4.91114 36.3584 5.23345 35.2503C5.55482 34.1427 5.84716 32.9748 6.11169 31.7483C6.35 30.6394 6.53671 29.3589 6.67182 27.9066C6.80692 26.4544 6.99624 25.2684 7.24211 24.3491C7.4872 23.4297 7.9514 22.4292 8.63375 21.3482C9.13195 20.5727 10.1929 19.9855 11.8182 19.5864C13.4426 19.1879 15.2089 18.9844 17.1168 18.9784C19.0238 18.9723 20.805 19.0287 22.4604 19.1503C24.1151 19.2717 25.3832 19.4303 26.2642 19.6276C27.437 19.8982 28.0949 20.5834 28.2368 21.6839C28.3787 22.7845 28.061 23.7915 27.2849 24.7061C26.5072 25.6211 25.5726 25.979 24.4787 25.78C22.7854 25.5053 21.0751 25.3952 19.3467 25.4502C17.6182 25.506 16.4297 25.661 15.7839 25.9149L13.9449 26.7191M14.4395 28.0994L15.2071 28.2117C15.8046 28.2992 16.3085 28.2604 18.0254 28.2053C19.7424 28.1502 20.9408 28.2434 21.6231 28.4855C22.2624 28.704 22.6686 29.0741 22.8408 29.5955C23.0128 30.1176 22.9867 30.6487 22.7639 31.1898C22.5409 31.7317 22.1954 32.2365 21.7281 32.7051C21.2599 33.1736 20.7766 33.4646 20.2789 33.5783C19.6578 33.7144 18.8271 33.7784 17.7874 33.7687C16.7474 33.7599 15.8833 33.7576 15.1957 33.7628C14.7626 33.7667 14.449 33.8022 14.2561 33.8687L13.2016 34.1925M15.6165 26.0059C15.4536 26.209 15.2229 26.6569 15.1166 27.1153C15.023 27.5169 15.0784 27.9313 15.1342 28.1137" stroke="#DD57DD" stroke-width="0.489675" stroke-miterlimit="10" stroke-linecap="round"/>
<path d="M11.1026 22.3002C11.8557 21.9203 12.3032 21.289 12.1021 20.8902C11.9009 20.4914 11.1273 20.4761 10.3741 20.856C9.62093 21.2359 9.17345 21.8672 9.37462 22.266C9.57579 22.6648 10.3494 22.6801 11.1026 22.3002Z" fill="white"/>
<path d="M44.0181 26.6646C43.6929 27.844 43.2245 30.1314 42.6114 33.5291C41.9983 36.9267 41.6516 38.8147 41.5707 39.1922C41.3931 40.0179 40.9927 40.7467 40.3719 41.3796C39.7503 42.0124 39.0342 42.4787 38.2237 42.7785C37.413 43.079 36.6057 43.2838 35.8005 43.3952C34.9954 43.5057 34.2744 43.4994 33.6385 43.3755C33.0016 43.2523 32.5848 43.0474 32.3853 42.7618C32.2793 42.596 32.1871 42.5002 32.11 42.4757C32.032 42.4518 31.9527 42.4627 31.8721 42.5093C31.7905 42.5564 31.6394 42.6257 31.4186 42.7178C31.1969 42.8106 30.9287 42.9028 30.6133 42.9943C30.297 43.0863 29.8199 43.1589 29.1813 43.2118C28.5426 43.2655 27.8024 43.2646 26.9623 43.2097C25.8611 43.1529 24.9156 42.8194 24.1233 42.2096C23.331 41.5998 22.7516 40.7972 22.3862 39.8013C22.02 38.8052 21.811 37.6864 21.7584 36.4456C21.706 35.2041 21.8369 33.9062 22.1525 32.5497C22.4679 31.1941 22.9521 29.8802 23.6039 28.6102C25.3761 25.1049 28.0668 23.2739 31.6762 23.117C32.2299 23.0746 32.741 23.0913 33.2106 23.1658C33.6793 23.2409 34.0611 23.3392 34.3554 23.4595C34.6487 23.5805 34.9088 23.7186 35.1365 23.874C35.3632 24.03 35.5353 24.1672 35.6517 24.2864C35.768 24.4063 35.8718 24.5013 35.9629 24.5731C36.0539 24.6449 36.1266 24.6636 36.1818 24.6285C36.2362 24.5932 36.2961 24.4824 36.3603 24.2932C36.6404 23.5393 37.4926 23.0748 38.9155 22.8977C40.3384 22.7215 41.6346 22.9697 42.8045 23.6416C43.9744 24.3136 44.3789 25.3215 44.0187 26.6655L44.0181 26.6646ZM33.7411 36.4629C33.807 36.1565 33.9673 35.496 34.2205 34.4819C34.4744 33.468 34.6606 32.6842 34.7801 32.1299C34.8995 31.5763 35.0101 30.8973 35.1115 30.0946C35.1398 29.7405 34.9033 29.4671 34.4006 29.2733C33.897 29.0801 33.3095 29.1166 32.6367 29.3817C31.9637 29.6475 31.4327 30.1927 31.0415 31.0158C30.0779 33.1822 30.1476 34.8958 31.2488 36.158C31.8528 36.8721 32.4885 37.1618 33.1579 37.0259C33.4795 36.9578 33.674 36.7708 33.7401 36.4635L33.7411 36.4629Z" fill="url(#paint1_linear_501_1889)"/>
<path d="M36.8074 31.0759C36.3362 30.9389 34.6822 28.4911 32.6369 29.3809C31.9736 29.6694 31.4329 30.1919 31.0418 31.015C30.401 32.4558 30.2173 33.697 30.491 34.7379C30.4852 34.7309 30.4764 34.7264 30.4735 34.7176C29.9508 33.43 29.8361 32.0536 30.3732 30.4001C30.6548 29.533 31.4712 28.7818 32.1442 28.5159C32.5143 28.3697 32.8556 28.2905 33.2484 28.2841C34.0121 28.2714 34.7541 28.5464 35.3416 29.0337C35.8388 29.4461 36.4176 30.0974 36.8074 31.0759Z" fill="white"/>
<path d="M23.3462 40.7696C22.914 40.6079 22.6614 40.165 22.3862 39.8013C22.7517 40.7972 23.331 41.5998 24.1226 42.2094C24.9149 42.8192 25.8612 43.1528 26.9616 43.2095C27.8024 43.2646 28.5418 43.2653 29.1806 43.2116C29.8192 43.1587 30.2962 43.0861 30.6126 42.9941C30.928 42.9026 31.1969 42.8106 31.4179 42.7177C31.6386 42.6255 31.7899 42.5555 31.8714 42.5091C31.9528 42.4627 32.0313 42.4516 32.1093 42.4755C32.1864 42.5001 32.2786 42.5958 32.3846 42.7617C32.5833 43.047 33.0009 43.2521 33.6378 43.3754C34.2737 43.4992 34.9947 43.5056 35.7998 43.395C36.6048 43.2844 37.4123 43.0788 38.223 42.7783C39.0335 42.4785 39.7495 42.0122 40.3712 41.3795C40.9918 40.7473 41.3922 40.0185 41.57 39.192C41.6509 38.8145 41.9974 36.9273 42.6107 33.5289C43.223 30.1311 43.6924 27.843 44.0173 26.6644C44.3141 25.5571 44.09 24.6785 43.3493 24.0279C43.3923 24.3921 43.3574 24.7905 43.2408 25.2254C42.9156 26.4048 42.4472 28.6922 41.8341 32.0899C41.221 35.4875 40.8743 37.3755 40.7934 37.753C40.6158 38.5788 40.2155 39.3075 39.5946 39.9404C38.973 40.5732 38.2569 41.0395 37.4464 41.3393C36.6358 41.6398 35.8285 41.8446 35.0232 41.956C34.2181 42.0665 33.4972 42.0602 32.8612 41.9364C32.2243 41.8131 33.3515 41.691 33.152 41.4055C33.046 41.2396 33.1668 41.332 33.0897 41.3074C33.0897 41.3074 31.5145 43.8269 23.3453 40.7702L23.3462 40.7696Z" fill="white"/>
<path d="M33.1474 41.4338C32.9389 41.8483 31.8715 42.5083 31.8715 42.5083C31.7899 42.5555 31.6388 42.6247 31.4181 42.7169C31.1964 42.8096 30.9282 42.9018 30.6128 42.9933C30.2964 43.0854 29.8193 43.1579 29.1808 43.2108C28.542 43.2645 27.8018 43.2637 26.9618 43.2087C25.8606 43.1519 24.9151 42.8185 24.1228 42.2086C23.3305 41.5988 22.7511 40.7963 22.3856 39.8003C22.0194 38.8042 21.8105 37.6855 21.7579 36.4447C21.7054 35.2031 21.8363 33.9052 22.1519 32.5488C22.4673 31.1931 22.9516 29.8792 23.6034 28.6092C25.3755 25.104 28.0663 23.2729 31.6757 23.116C32.2294 23.0736 32.7405 23.0904 33.2101 23.1649C33.6787 23.24 34.0605 23.3382 34.3548 23.4586C34.6482 23.5796 34.9083 23.7177 35.136 23.873C35.3627 24.029 36.4771 24.7188 37.7385 26.2374M36.2084 24.5314L36.3607 24.2917C36.6408 23.5377 37.493 23.0732 38.916 22.8962C40.3388 22.7199 41.635 22.9681 42.8049 23.6401C43.9748 24.312 44.3793 25.3199 44.0191 26.664C43.6939 27.8434 43.2255 30.1308 42.6124 33.5284C41.9993 36.926 41.6526 38.8141 41.5717 39.1915C41.3941 40.0173 40.9938 40.7461 40.3729 41.379C39.7513 42.0118 39.0352 42.4781 38.2247 42.7778C37.4141 43.0784 36.6068 43.2832 35.8015 43.3946C34.9964 43.5051 34.2755 43.4988 33.6395 43.3749C33.3216 43.313 33.0578 43.2313 32.8487 43.1283C32.5975 43.0053 32.4016 42.7916 32.2779 42.5401L32.2526 42.4887M36.7488 30.9868C35.9018 29.6767 34.4007 29.2733 34.4007 29.2733C33.8971 29.0801 33.3096 29.1166 32.6367 29.3817C31.9637 29.6475 31.4327 30.1927 31.0416 31.0158C30.078 33.1822 30.1477 34.8958 31.2489 36.158C31.8529 36.8721 32.4886 37.1618 33.158 37.0258C33.4796 36.9578 33.6741 36.7708 33.7402 36.4635C33.8061 36.1571 33.9664 35.4966 34.2196 34.4825C34.4735 33.4686 34.6597 32.6848 34.7793 32.1305C34.8737 31.6923 34.9627 31.176 35.046 30.5825C35.0906 30.2656 35.0881 29.9431 35.0419 29.6263L35.0303 29.5502" stroke="#DD57DD" stroke-width="0.489675" stroke-miterlimit="10" stroke-linecap="round"/>
<path d="M44.582 43.0507C43.9842 42.9174 43.4253 42.6604 42.9194 42.2869C42.2015 41.7574 41.7951 41.022 41.7117 40.1028C41.5805 38.4556 42.0038 35.2314 43.005 30.2434C44.0089 25.2439 44.9351 22.2119 45.837 20.9748L45.843 20.9663L45.8497 20.958C46.7576 19.9175 47.8373 19.2276 49.0583 18.9082C50.0398 18.6515 50.9442 18.6121 51.7453 18.7908C51.9415 18.8345 52.1345 18.8923 52.3192 18.9621C53.292 19.3302 53.8852 19.9463 54.0809 20.7949C54.2646 21.5942 54.2793 22.4261 54.1226 23.268C53.9695 24.0902 53.6769 25.1421 53.2528 26.3951C52.8332 27.6351 52.523 28.6634 52.3302 29.4507C52.1239 30.409 51.918 31.5595 51.7197 32.8628C51.5214 34.162 51.3566 35.2857 51.2309 36.2048C51.1055 37.119 50.9144 38.0636 50.6629 39.0118C50.4073 39.9746 50.0906 40.7572 49.7214 41.3392C49.3317 41.969 48.699 42.4497 47.8422 42.7669C47.0031 43.0775 46.1424 43.2067 45.2849 43.1495C45.0457 43.1337 44.8087 43.1005 44.5814 43.0498L44.582 43.0507Z" fill="url(#paint2_linear_501_1889)"/>
<path d="M51.6939 19.0253C51.88 19.0668 52.06 19.1208 52.2356 19.187C53.1333 19.5261 53.6707 20.0807 53.8489 20.8501C54.0261 21.6202 54.0399 22.4119 53.8887 23.2256C53.7365 24.0399 53.4501 25.0711 53.0279 26.3195C52.6047 27.5686 52.2951 28.5938 52.1 29.3953C51.8916 30.3629 51.6863 31.507 51.4856 32.8285C51.2838 34.1507 51.121 35.2658 50.996 36.1744C50.8717 37.0832 50.6839 38.0097 50.4336 38.9525C50.1831 39.896 49.8787 40.6494 49.5208 41.2135C49.1577 41.801 48.5707 42.2454 47.7602 42.5452C46.9497 42.8449 46.1295 42.9684 45.3018 42.913C45.0731 42.8979 44.8513 42.8664 44.6349 42.8182C44.0674 42.6916 43.5434 42.4505 43.0627 42.0957C42.3981 41.6059 42.0281 40.9342 41.9508 40.0826C41.8232 38.4745 42.2536 35.2111 43.2411 30.292C44.2287 25.3729 45.1583 22.3148 46.0325 21.1173C46.912 20.1089 47.9422 19.4503 49.1215 19.1421C50.0709 18.8938 50.9285 18.8554 51.6961 19.0266M51.7981 18.5582C50.9597 18.3712 50.0176 18.4112 48.9986 18.6783C47.7307 19.0101 46.6104 19.7245 45.6705 20.802L45.6572 20.8178L45.6453 20.8348C44.7224 22.0999 43.7821 25.1622 42.772 30.1972C41.7666 35.2071 41.3418 38.453 41.4744 40.1194L41.4739 40.1217L41.4749 40.1244C41.5647 41.1144 42.0033 41.9068 42.7794 42.4795C43.3119 42.8729 43.9011 43.144 44.5316 43.2846C44.7706 43.3379 45.0194 43.373 45.2714 43.39C46.1629 43.449 47.0571 43.3159 47.9274 42.9935C48.8349 42.6582 49.5076 42.1446 49.9274 41.4677C50.3093 40.8656 50.6351 40.0606 50.8971 39.0763C51.1515 38.1189 51.3446 37.165 51.4708 36.2403C51.5966 35.3204 51.7614 34.1967 51.9586 32.9022C52.1563 31.6052 52.3607 30.4618 52.5663 29.5033C52.7567 28.7229 53.0648 27.7039 53.4813 26.4738C53.9086 25.2101 54.2046 24.1467 54.3594 23.3134C54.5218 22.4385 54.5071 21.5739 54.3158 20.7426C54.1002 19.8112 53.4577 19.1375 52.4057 18.7395C52.2097 18.6655 52.006 18.6046 51.7989 18.5584L51.7981 18.5582Z" fill="#DD57DD"/>
<path d="M50.9951 36.1742C51.1201 35.2656 51.283 34.1505 51.4847 32.8283C51.6855 31.5068 51.8908 30.3627 52.0992 29.3951C52.2951 28.5938 52.6046 27.5686 53.0271 26.3194C53.4493 25.0709 53.7366 24.0391 53.8878 23.2254C54.0391 22.4117 54.0262 21.6194 53.848 20.85C53.7055 20.2323 53.3295 19.7529 52.7222 19.4123C52.8642 20.128 52.8671 20.8625 52.7269 21.6157C52.5747 22.43 52.2883 23.4612 51.8661 24.7096C51.4429 25.9587 51.1333 26.9839 50.9383 27.7854C50.7298 28.753 50.5245 29.8971 50.3238 31.2186C50.1221 32.5408 49.9592 33.6559 49.8342 34.5645C49.7099 35.4733 49.5221 36.3998 49.2718 37.3426C49.0213 38.2861 48.7169 39.0395 48.3591 39.6028C47.996 40.1903 47.4091 40.6347 46.5986 40.9345C45.7881 41.2342 44.9679 41.3578 44.1402 41.3023C43.3662 41.2514 42.664 41.0107 42.0345 40.5794C42.1914 41.1986 42.5331 41.7039 43.0622 42.094C43.7259 42.5844 44.4725 42.8571 45.3013 42.9112C46.13 42.9661 46.95 42.8434 47.7597 42.5434C48.5702 42.2437 49.157 41.8001 49.5203 41.2118C49.8782 40.6477 50.1819 39.8941 50.433 38.9515C50.6833 38.0087 50.8709 37.083 50.9953 36.1735L50.9951 36.1742Z" fill="white"/>
<path d="M53.2515 43.1283C52.6536 42.995 52.0947 42.738 51.5888 42.3645C50.8709 41.835 50.4646 41.0996 50.3811 40.1804C50.2507 38.5333 50.674 35.3091 51.6744 30.321C52.6783 25.3214 53.6045 22.2895 54.5072 21.0525L54.5132 21.0441L54.5197 21.0366C55.4276 19.9961 56.5073 19.3061 57.7283 18.9868C58.7098 18.73 59.6143 18.6907 60.4153 18.8693C60.6115 18.9131 60.8045 18.9708 60.9892 19.0406C61.9621 19.4088 62.5552 20.0248 62.7509 20.8734C62.9354 21.6729 62.9493 22.5046 62.7926 23.3465C62.6395 24.1688 62.3469 25.2206 61.9228 26.4736C61.5032 27.7137 61.193 28.742 61.0003 29.5293C60.7941 30.4868 60.5882 31.6372 60.3895 32.9421C60.1921 34.2342 60.0279 35.3588 59.9008 36.2841C59.7752 37.1991 59.5841 38.1437 59.3328 39.0911C59.0772 40.054 58.7603 40.8373 58.3913 41.4185C58.0016 42.0483 57.3689 42.5291 56.5112 42.8461C55.6722 43.1566 54.8124 43.2852 53.9539 43.2286C53.7147 43.2129 53.4778 43.1796 53.2505 43.1289L53.2515 43.1283Z" fill="url(#paint3_linear_501_1889)"/>
<path d="M60.3633 19.1029C60.5493 19.1444 60.7293 19.1984 60.905 19.2645C61.8026 19.6037 62.34 20.1583 62.5182 20.9277C62.6954 21.6978 62.7092 22.4895 62.558 23.3032C62.4058 24.1175 62.1194 25.1487 61.6972 26.3971C61.274 27.6462 60.9644 28.6714 60.7694 29.4729C60.5609 30.4405 60.3556 31.5845 60.1549 32.9061C59.9532 34.2283 59.7903 35.3434 59.6653 36.252C59.5411 37.1608 59.3532 38.0873 59.1029 39.0301C58.8525 39.9736 58.548 40.727 58.1901 41.2911C57.827 41.8786 57.24 42.323 56.4295 42.6227C55.619 42.9225 54.7988 43.046 53.9711 42.9906C53.7424 42.9755 53.5206 42.944 53.3042 42.8957C52.7367 42.7692 52.2127 42.5281 51.732 42.1733C51.0674 41.6835 50.6975 41.0118 50.6202 40.1602C50.4926 38.5521 50.9229 35.2887 51.9105 30.3696C52.898 25.4505 53.8276 22.3924 54.7019 21.1948C55.5813 20.1864 56.6116 19.5279 57.7908 19.2197C58.7402 18.9714 59.5979 18.933 60.3646 19.104M60.4674 18.6358C59.629 18.4488 58.6869 18.4888 57.6679 18.7559C56.4 19.0877 55.2797 19.8021 54.3399 20.8796L54.3265 20.8954L54.3146 20.9124C53.3918 22.1775 52.4514 25.2398 51.4413 30.2748C50.436 35.2846 50.0111 38.5306 50.1437 40.197L50.1432 40.1993L50.1442 40.202C50.234 41.192 50.6726 41.9844 51.4487 42.5571C51.9812 42.9505 52.5704 43.2216 53.201 43.3622C53.44 43.4155 53.6887 43.4506 53.9407 43.4676C54.8322 43.5266 55.7265 43.3935 56.5967 43.0711C57.5042 42.7358 58.1769 42.2222 58.5967 41.5452C58.9786 40.9432 59.3044 40.1382 59.5666 39.1531C59.821 38.1957 60.0141 37.2418 60.1403 36.3171C60.2663 35.3964 60.4309 34.2735 60.6281 32.979C60.8258 31.6821 61.0302 30.5386 61.2358 29.5801C61.4261 28.7997 61.7343 27.7807 62.1508 26.5506C62.5781 25.2869 62.8741 24.2236 63.0289 23.3902C63.1913 22.5153 63.1766 21.6507 62.9852 20.8194C62.7697 19.888 62.1272 19.2143 61.0752 18.8163C60.8792 18.7423 60.6755 18.6814 60.4684 18.6352L60.4674 18.6358Z" fill="#DD57DD"/>
<path d="M59.6645 36.2518C59.7895 35.3432 59.9524 34.2281 60.1541 32.9059C60.3549 31.5844 60.5601 30.4403 60.7686 29.4727C60.9645 28.6714 61.274 27.6462 61.6964 26.3969C62.1187 25.1485 62.406 24.1167 62.5572 23.303C62.7084 22.4893 62.6956 21.697 62.5174 20.9275C62.3888 20.3718 62.0718 19.9284 61.5671 19.5969C61.6953 20.2899 61.693 21.0003 61.5574 21.7292C61.4052 22.5435 61.1188 23.5747 60.6966 24.8232C60.2734 26.0722 59.9638 27.0974 59.7688 27.8989C59.5603 28.8665 59.355 30.0106 59.1543 31.3321C58.9526 32.6543 58.7897 33.7694 58.6647 34.678C58.5405 35.5868 58.3526 36.5133 58.1023 37.4561C57.8519 38.3996 57.5474 39.153 57.1897 39.7164C56.8266 40.3038 56.2396 40.7482 55.4291 41.048C54.6186 41.3477 53.7984 41.4713 52.9707 41.4158C52.1419 41.3617 51.3953 41.089 50.7316 40.5986C50.7141 40.5857 50.6982 40.5723 50.6815 40.5596C50.8259 41.2235 51.1749 41.7622 51.7314 42.1723C52.3951 42.6628 53.1417 42.9355 53.9705 42.9896C54.7992 43.0445 55.6192 42.9217 56.4289 42.6218C57.2394 42.322 57.8262 41.8784 58.1895 41.2901C58.5474 40.726 58.8511 39.9725 59.1022 39.0299C59.3525 38.0871 59.5401 37.1614 59.6645 36.2518Z" fill="white"/>
<path d="M28.7327 26.2277C29.4858 25.8478 29.9333 25.2165 29.7321 24.8177C29.531 24.4189 28.7573 24.4036 28.0042 24.7835C27.251 25.1635 26.8035 25.7947 27.0047 26.1935C27.2059 26.5923 27.9795 26.6076 28.7327 26.2277Z" fill="white"/>
<path d="M48.4737 22.2296C49.1816 21.7485 49.555 21.0635 49.3077 20.6995C49.0603 20.3356 48.286 20.4305 47.578 20.9115C46.8701 21.3926 46.4968 22.0776 46.7441 22.4416C46.9914 22.8056 47.7658 22.7107 48.4737 22.2296Z" fill="white"/>
<path d="M56.8745 22.3057C57.5825 21.8246 57.9558 21.1396 57.7085 20.7756C57.4612 20.4116 56.6868 20.5066 55.9789 20.9876C55.271 21.4687 54.8976 22.1537 55.1449 22.5177C55.3923 22.8816 56.1666 22.7867 56.8745 22.3057Z" fill="white"/>
<path d="M64.612 27.1805C65.3199 26.6995 65.6933 26.0144 65.446 25.6505C65.1986 25.2865 64.4243 25.3814 63.7164 25.8625C63.0084 26.3435 62.6351 27.0285 62.8824 27.3925C63.1297 27.7565 63.9041 27.6616 64.612 27.1805Z" fill="white"/>
<path d="M70.3902 42.5059C69.9302 42.4033 69.4996 42.2051 69.1101 41.918C68.5529 41.5069 68.2372 40.9364 68.1722 40.224C68.0732 38.9713 68.3937 36.5266 69.152 32.7454C69.9128 28.9526 70.6174 26.6508 71.3058 25.7076L71.3118 25.6992L71.3183 25.6917C72.0134 24.8946 72.8403 24.3673 73.7758 24.1224C74.5282 23.9257 75.2214 23.8956 75.8371 24.0329C75.9882 24.0666 76.1367 24.1112 76.2794 24.1642C77.0353 24.4497 77.496 24.9308 77.6491 25.5925C77.7902 26.2058 77.8009 26.8432 77.6808 27.4881C77.5642 28.1134 77.3419 28.9121 77.0204 29.8627C76.7028 30.7995 76.4692 31.576 76.3236 32.1703C76.1684 32.8916 76.013 33.7607 75.8623 34.7478C75.7126 35.7269 75.5883 36.5777 75.4929 37.2763C75.3978 37.9702 75.2526 38.6872 75.0617 39.4078C74.8668 40.1423 74.624 40.7403 74.3416 41.1856C74.04 41.6732 73.5518 42.0448 72.8901 42.2895C72.2477 42.5279 71.5884 42.626 70.9305 42.5823C70.7462 42.5697 70.5648 42.544 70.3896 42.5049L70.3902 42.5059Z" fill="url(#paint4_linear_501_1889)"/>
<path d="M75.786 24.2659C75.9269 24.2973 76.0634 24.3376 76.1961 24.3876C76.8751 24.6444 77.2825 25.0638 77.4166 25.6461C77.5507 26.2284 77.5608 26.8281 77.4463 27.444C77.3318 28.06 77.1143 28.8409 76.794 29.7861C76.4738 30.7312 76.2393 31.5076 76.0919 32.1137C75.9343 32.8459 75.7788 33.7118 75.6267 34.7124C75.4739 35.7129 75.3509 36.5574 75.2565 37.2449C75.1618 37.9331 75.0203 38.6337 74.8309 39.3474C74.6415 40.061 74.4113 40.6316 74.1404 41.0582C73.8656 41.5028 73.4212 41.8392 72.8076 42.066C72.1947 42.293 71.5732 42.3865 70.9468 42.3448C70.7737 42.3332 70.6057 42.3096 70.4422 42.2731C70.0125 42.1773 69.616 41.9949 69.2526 41.7259C68.7503 41.3548 68.4697 40.8469 68.4116 40.2023C68.3153 38.9852 68.6405 36.5155 69.3883 32.7924C70.1351 29.07 70.8393 26.7551 71.5006 25.8492C72.166 25.0864 72.9456 24.5877 73.8385 24.3546C74.5571 24.1667 75.2059 24.1373 75.7866 24.2668M75.8902 23.7988C75.2371 23.6531 74.5062 23.6838 73.7165 23.8902C72.7333 24.1473 71.8664 24.7001 71.1396 25.5333L71.1263 25.5491L71.1143 25.5661C70.4057 26.5374 69.6877 28.8705 68.9191 32.6976C68.1562 36.4998 67.834 38.967 67.9352 40.239L67.9346 40.2413L67.9357 40.244C68.0068 41.0281 68.3547 41.6556 68.9693 42.1097C69.3853 42.4174 69.8464 42.629 70.3391 42.7388C70.526 42.7805 70.72 42.8083 70.9166 42.821C71.6074 42.8672 72.3006 42.7636 72.975 42.5136C73.6866 42.2506 74.2148 41.8462 74.5465 41.3114C74.8415 40.846 75.0935 40.2256 75.294 39.4694C75.4876 38.7404 75.6343 38.0131 75.7308 37.309C75.8263 36.6136 75.9504 35.7636 76.1002 34.7845C76.2489 33.806 76.4036 32.944 76.5583 32.221C76.7016 31.6335 76.9339 30.8665 77.2477 29.9395C77.5732 28.9784 77.798 28.168 77.917 27.5318C78.0429 26.8539 78.0314 26.1836 77.8835 25.5386C77.7114 24.7933 77.2005 24.2553 76.3654 23.9399C76.2116 23.8819 76.0523 23.8341 75.8904 23.798L75.8902 23.7988Z" fill="#DD57DD"/>
<path d="M75.2565 37.2448C75.351 36.5574 75.4738 35.7137 75.6268 34.7124C75.7787 33.7125 75.9344 32.8459 76.092 32.1137C76.2404 31.5069 76.4746 30.7314 76.7941 29.7861C77.1136 28.8407 77.3309 28.0606 77.4456 27.4438C77.5601 26.8279 77.55 26.2282 77.4159 25.6459C77.3002 25.1461 76.983 24.7657 76.4655 24.5065C76.4967 24.8942 76.4764 25.2893 76.4014 25.6918C76.2869 26.3077 76.0694 27.0887 75.7499 28.034C75.4296 28.9792 75.1952 29.7555 75.0477 30.3617C74.8902 31.0939 74.7346 31.9597 74.5826 32.9604C74.4297 33.9609 74.3068 34.8054 74.2123 35.4928C74.1176 36.181 73.9761 36.8816 73.7867 37.5953C73.5973 38.309 73.3671 38.8795 73.0963 39.3062C72.8214 39.7507 72.377 40.0872 71.7642 40.3141C71.1513 40.5411 70.5299 40.6346 69.9034 40.5929C69.3566 40.5568 68.8573 40.3956 68.4056 40.1085C68.4074 40.1408 68.4094 40.1723 68.4115 40.203C68.4696 40.8477 68.7502 41.3556 69.2526 41.7267C69.7549 42.0978 70.3202 42.3039 70.9474 42.3457C71.5747 42.3876 72.1952 42.2947 72.8083 42.0669C73.4219 41.8401 73.8653 41.5043 74.1403 41.059C74.4112 40.6323 74.6414 40.0618 74.8308 39.3481C75.0202 38.6345 75.1617 37.9338 75.2564 37.2456L75.2565 37.2448Z" fill="white"/>
<path d="M73.2588 26.4645C73.7944 26.1005 74.0768 25.5822 73.8897 25.3068C73.7025 25.0313 73.1166 25.1031 72.581 25.467C72.0454 25.831 71.763 26.3493 71.9502 26.6247C72.1373 26.9002 72.7233 26.8284 73.2588 26.4645Z" fill="white"/>
<path d="M74.6927 23.1705C74.5159 23.1311 74.3078 23.0789 74.0745 23.0147C73.7224 22.919 73.455 22.8022 73.2569 22.6574C73.0585 22.5135 72.8803 22.3087 72.7264 22.0496C72.5695 21.7858 72.4812 21.4785 72.4635 21.1362L72.4628 21.1246C72.4594 20.1138 72.7965 19.2729 73.465 18.6244C74.1387 17.9706 74.9675 17.6986 75.9299 17.8168C76.1138 17.835 76.3062 17.8664 76.4962 17.9088C76.7663 17.969 77.0415 18.0541 77.315 18.1617C77.7906 18.3486 78.2655 18.6703 78.728 19.1175C79.2058 19.5803 79.4927 20.1224 79.5804 20.7295C79.7306 21.6905 79.4372 22.4194 78.709 22.8927C78.0161 23.3429 77.2561 23.5117 76.4512 23.3943C76.361 23.3808 76.1356 23.3583 75.7642 23.3237C75.3838 23.2887 75.0937 23.2518 74.8792 23.2097C74.8213 23.1984 74.7588 23.1853 74.6927 23.1705Z" fill="url(#paint5_linear_501_1889)"/>
<path d="M76.4448 18.1425C76.704 18.2003 76.9648 18.2805 77.2277 18.3841C77.6754 18.5608 78.1198 18.8617 78.5615 19.2887C79.0024 19.7156 79.2628 20.2076 79.3432 20.7632C79.4785 21.6294 79.2233 22.272 78.578 22.6919C77.932 23.1117 77.2347 23.2667 76.4853 23.1568C76.3864 23.1421 76.153 23.1187 75.7855 23.0849C75.417 23.0518 75.131 23.0149 74.925 22.9747C74.8686 22.9638 74.8085 22.9512 74.7439 22.9368C74.5719 22.8984 74.3691 22.8475 74.1365 22.7842C73.8167 22.6973 73.57 22.5908 73.397 22.4648C73.2233 22.3386 73.0686 22.1603 72.9315 21.9287C72.7936 21.6969 72.7177 21.4291 72.7014 21.1247C72.6986 20.177 73.0081 19.4011 73.6307 18.7971C74.2525 18.1929 75.0096 17.9458 75.9004 18.0554C76.081 18.0736 76.2617 18.1025 76.4446 18.1433M76.549 17.6754C76.3505 17.6311 76.1509 17.5989 75.9544 17.5788C74.9186 17.4524 74.0251 17.7467 73.2981 18.4524C72.5817 19.1474 72.221 20.0468 72.2242 21.1245L72.2239 21.1367L72.2246 21.1483C72.2448 21.5304 72.3445 21.8746 72.5209 22.1722C72.6906 22.4592 72.8913 22.6879 73.117 22.8518C73.3377 23.013 73.6309 23.1421 74.0122 23.2459C74.2496 23.3103 74.4607 23.3639 74.6405 23.404C74.709 23.4193 74.7738 23.433 74.8341 23.4448C75.0556 23.4884 75.3535 23.5271 75.7427 23.5624C76.1047 23.5957 76.3317 23.6186 76.4171 23.6311C77.2813 23.7576 78.0963 23.5766 78.8398 23.0935C79.3998 22.7297 80.0235 22.0181 79.8174 20.6925C79.7218 20.0329 79.4107 19.4454 78.8946 18.9454C78.4093 18.476 77.9078 18.1378 77.4031 17.9386C77.1175 17.8267 76.8308 17.7383 76.549 17.6754Z" fill="#DD57DD"/>
<path d="M79.344 20.7634C79.2636 20.2077 79.0029 19.7165 78.5615 19.2887C78.3793 19.1124 78.1962 18.9588 78.0128 18.8248C78.2415 19.1479 78.3858 19.5012 78.4413 19.8862C78.5766 20.7524 78.3213 21.395 77.6761 21.815C77.03 22.2347 76.3327 22.3898 75.5834 22.2798C75.4845 22.2651 75.2511 22.2417 74.8836 22.2079C74.515 22.1748 74.2291 22.138 74.0231 22.0978C73.8172 22.0575 73.5543 21.994 73.2353 21.9074C73.0942 21.8694 72.9689 21.8267 72.8565 21.7812C72.8796 21.8313 72.9045 21.881 72.9324 21.9281C73.0695 22.1597 73.2249 22.339 73.398 22.4642C73.5709 22.5902 73.8176 22.6967 74.1374 22.7835C74.457 22.8712 74.72 22.9339 74.9252 22.9739C75.1311 23.0141 75.4171 23.051 75.7856 23.0841C76.1532 23.1179 76.3866 23.1413 76.4855 23.156C77.235 23.2652 77.9323 23.1101 78.5782 22.6911C79.2234 22.2712 79.4787 21.6286 79.3434 20.7624L79.344 20.7634Z" fill="white"/>
<path d="M74.9556 19.8187C75.4912 19.4547 75.7736 18.9364 75.5864 18.6609C75.3993 18.3855 74.8134 18.4573 74.2778 18.8212C73.7422 19.1852 73.4598 19.7035 73.647 19.9789C73.8341 20.2544 74.42 20.1826 74.9556 19.8187Z" fill="white"/>
<path d="M69.6013 26.2493C69.2761 25.4797 68.202 25.2426 67.1183 25.7307C66.953 25.805 66.7985 25.8931 66.6527 25.9897C66.2645 25.327 65.2551 25.1444 64.2368 25.6029C63.6099 25.8856 63.1113 26.3513 62.8315 26.8585C62.565 26.9249 62.2926 27.0178 62.0209 27.1402C60.2069 27.9566 59.0663 29.7403 59.4728 31.1237C59.8463 32.3952 61.3957 32.8862 63.0524 32.3241C63.9131 32.7996 65.1791 32.8025 66.4525 32.23C67.6306 31.7001 68.5489 30.796 69.0063 29.8332C69.3205 29.8166 69.6579 29.7366 69.9959 29.584C71.1377 29.0705 71.8555 27.9476 71.6003 27.0767C71.3849 26.3423 70.5441 26.0232 69.6021 26.2495L69.6013 26.2493Z" fill="white" stroke="#DD57DD" stroke-width="0.489675" stroke-miterlimit="10"/>
<path d="M62.8009 26.8672C62.8009 26.8672 63.2775 26.7014 64.0967 27.0222L62.8009 26.8672Z" fill="white"/>
<path d="M62.8009 26.8672C62.8009 26.8672 63.2775 26.7014 64.0967 27.0222" stroke="#DD57DD" stroke-width="0.489675" stroke-miterlimit="10" stroke-linecap="round"/>
<path d="M66.5703 25.8676C66.5703 25.8676 66.7735 26.0739 66.8153 26.6234L66.5703 25.8676Z" fill="white"/>
<path d="M66.5703 25.8676C66.5703 25.8676 66.7735 26.0739 66.8153 26.6234" stroke="#DD57DD" stroke-width="0.489675" stroke-miterlimit="10" stroke-linecap="round"/>
<path d="M69.2015 28.9501C69.2015 28.9501 69.2575 29.2486 69.0159 29.8043L69.2015 28.9501Z" fill="white"/>
<path d="M69.2015 28.9501C69.2015 28.9501 69.2575 29.2486 69.0159 29.8043" stroke="#DD57DD" stroke-width="0.489675" stroke-miterlimit="10" stroke-linecap="round"/>
<path d="M68.2006 35.8388C67.8754 35.0692 66.8014 34.8322 65.7176 35.3202C65.5524 35.3945 65.3979 35.4826 65.2521 35.5792C64.8638 34.9165 63.8545 34.7339 62.8361 35.1924C62.2092 35.4751 61.7107 35.9408 61.4308 36.448C61.1643 36.5144 60.8919 36.6073 60.6203 36.7298C58.8063 37.5461 57.6657 39.3298 58.0722 40.7133C58.4456 41.9847 59.995 42.4757 61.6518 41.9136C62.5125 42.3891 63.7785 42.392 65.0519 41.8196C66.2299 41.2896 67.1483 40.3855 67.6057 39.4227C67.9199 39.4062 68.2573 39.3261 68.5953 39.1735C69.737 38.66 70.4549 37.5371 70.1996 36.6663C69.9843 35.9318 69.1434 35.6127 68.2014 35.839L68.2006 35.8388Z" fill="white" stroke="#DD57DD" stroke-width="0.489675" stroke-miterlimit="10"/>
<path d="M61.4008 36.4569C61.4008 36.4569 61.8775 36.291 62.6967 36.6118L61.4008 36.4569Z" fill="white"/>
<path d="M61.4008 36.4569C61.4008 36.4569 61.8775 36.291 62.6967 36.6118" stroke="#DD57DD" stroke-width="0.489675" stroke-miterlimit="10" stroke-linecap="round"/>
<path d="M65.1705 35.4572C65.1705 35.4572 65.3737 35.6636 65.4154 36.213L65.1705 35.4572Z" fill="white"/>
<path d="M65.1705 35.4572C65.1705 35.4572 65.3737 35.6636 65.4154 36.213" stroke="#DD57DD" stroke-width="0.489675" stroke-miterlimit="10" stroke-linecap="round"/>
<path d="M67.8017 38.5397C67.8017 38.5397 67.8577 38.8382 67.6161 39.394L67.8017 38.5397Z" fill="white"/>
<path d="M67.8017 38.5397C67.8017 38.5397 67.8577 38.8382 67.6161 39.394" stroke="#DD57DD" stroke-width="0.489675" stroke-miterlimit="10" stroke-linecap="round"/>
<path d="M96.7291 29.5821C96.6241 31.8264 96.417 33.8101 96.1058 35.532C95.7935 37.2544 95.474 38.552 95.144 39.423C94.8139 40.2949 94.4622 40.9413 94.0869 41.3635C93.6152 41.903 92.9436 42.3277 92.0724 42.6393C91.2005 42.9507 90.3529 43.091 89.5312 43.0597C88.7086 43.0291 88.0062 42.745 87.424 42.2081C86.841 41.6712 86.5803 40.9307 86.6415 39.9858C86.7349 39.1126 86.9128 38.0915 87.1765 36.9238C87.4393 35.7566 87.7178 34.6542 88.0121 33.6166L88.4392 32.1118C88.4492 32.0781 88.4533 32.0414 88.4522 32.006C88.4327 31.5367 88.3133 31.1816 88.0908 30.9407C87.8605 30.6908 87.5856 30.5641 87.2668 30.5608C86.9478 30.5583 86.61 30.6146 86.2544 30.7289C85.8976 30.8447 85.5732 31.006 85.2794 31.2167C84.9858 31.4266 84.7705 31.6262 84.6356 31.8135C84.3163 32.307 84.0539 32.9488 83.8484 33.7381C83.6428 34.5283 83.4986 35.3068 83.4166 36.0738C83.3344 36.8416 83.2118 37.6846 83.0498 38.6054C82.8871 39.5252 82.6653 40.3624 82.3852 41.1163C82.228 41.5168 81.9554 41.8744 81.568 42.19C81.1805 42.5057 80.7382 42.7445 80.2423 42.9053C79.7462 43.0667 79.2132 43.1742 78.6456 43.2274C78.0779 43.2814 77.5378 43.2296 77.0281 43.071C76.5175 42.913 76.0609 42.6959 75.6589 42.4208C75.2569 42.1456 74.9582 41.7407 74.7658 41.2075C74.5726 40.6741 74.5174 40.053 74.5986 39.3446C74.7509 38.3064 75.0761 36.9619 75.5732 35.3117C76.0644 33.6807 76.343 32.7172 76.408 32.422C76.4096 32.415 76.411 32.4088 76.4127 32.401C76.5522 31.5299 76.674 30.4416 76.7788 29.1363C76.8831 27.8259 77.0161 26.852 77.1761 26.2152C77.5442 24.9423 78.4734 24.1175 79.9638 23.7405C81.4533 23.3642 82.8379 23.3412 84.1167 23.6714C85.0755 23.9195 85.6326 24.2064 85.7892 24.5339C85.8656 24.6931 86.0362 24.7818 86.2029 24.7234C86.2081 24.7221 86.2127 24.7198 86.2179 24.7185C86.3842 24.6616 86.7222 24.5458 87.2338 24.3731C87.7438 24.2008 88.2481 24.0575 88.7467 23.9431C89.2444 23.8294 89.8323 23.7399 90.5087 23.675C91.1851 23.6101 91.8083 23.6044 92.377 23.6561C92.9455 23.7085 93.5182 23.8558 94.0936 24.0969C94.6689 24.3388 95.1531 24.674 95.5463 25.1024C95.9392 25.5317 96.2499 26.1248 96.4771 26.8831C96.7043 27.6415 96.789 28.5405 96.7314 29.5793L96.7291 29.5821Z" fill="url(#paint6_linear_501_1889)"/>
<path d="M85.9017 30.8807C85.6545 30.9008 87.314 30.6049 86.2533 30.7295C85.8808 30.7731 85.5721 31.0066 85.2783 31.2173C84.9847 31.4272 84.7694 31.6268 84.6345 31.8141C84.3152 32.3076 84.0528 32.9494 83.8473 33.7387C83.6417 34.5289 83.4975 35.3074 83.4155 36.0744C83.3333 36.8422 83.2107 37.6852 83.0487 38.6059C82.886 39.5258 82.6642 40.363 82.3841 41.1169C82.2269 41.5174 81.9543 41.875 81.5669 42.1906C81.1794 42.5063 80.7372 42.7451 80.2412 42.9059C79.7451 43.0673 79.2121 43.1748 78.6445 43.228C78.0768 43.282 77.5367 43.2302 77.027 43.0716C76.5164 42.9136 76.0598 42.6965 75.6578 42.4214C75.3494 42.2104 75.1023 41.9224 74.9169 41.5591C75.1374 41.6622 75.3706 41.7526 75.616 41.8286C76.1264 41.9874 76.6657 42.039 77.2334 41.985C77.8011 41.931 78.3342 41.8235 78.8301 41.6628C79.3268 41.5023 79.7683 41.2633 80.1558 40.9476C80.5432 40.632 80.8158 40.2744 80.973 39.8738C81.2531 39.1199 81.4749 38.2828 81.6376 37.3629C81.8004 36.4423 82.0739 34.417 82.6645 33.2821" fill="white"/>
<path d="M96.1056 35.5319C96.4169 33.8101 96.6247 31.8265 96.729 29.5821C96.7866 28.5432 96.7019 27.6442 96.4747 26.8858C96.2475 26.1275 95.937 25.5336 95.5439 25.1052C95.2349 24.7682 94.8681 24.4895 94.4468 24.268C94.6951 24.6421 94.9013 25.0991 95.0637 25.642C95.291 26.4004 95.3757 27.2994 95.318 28.3383C95.2131 30.5826 95.006 32.5663 94.6947 34.2881C94.3825 36.0106 94.0629 37.3081 93.733 38.1792C93.4029 39.0511 93.0512 39.6975 92.6759 40.1196C92.2042 40.6592 91.5325 41.0839 90.6614 41.3954C89.7894 41.7068 88.9418 41.8471 88.1201 41.8159C87.689 41.7998 87.2907 41.7134 86.9258 41.5577C87.0516 41.7998 87.2173 42.0166 87.424 42.2073C88.0071 42.7443 88.7094 43.0284 89.5312 43.0589C90.3529 43.0901 91.1998 42.9497 92.0725 42.6385C92.9444 42.3271 93.616 41.9024 94.087 41.3626C94.4622 40.9405 94.814 40.2941 95.1441 39.4222C95.4732 38.551 95.7936 37.2536 96.1058 35.5312L96.1056 35.5319Z" fill="white"/>
<path d="M84.5757 31.8214C84.2959 32.4095 83.9907 33.188 83.8474 33.7387C83.6418 34.5289 83.4976 35.3073 83.4156 36.0744C83.3334 36.8422 83.2108 37.6852 83.0488 38.6059C82.8861 39.5258 82.6643 40.363 82.3842 41.1169C82.2271 41.5174 81.9544 41.875 81.567 42.1906C81.1795 42.5063 80.7373 42.7451 80.2413 42.9059C79.7453 43.0673 79.2122 43.1748 78.6446 43.228C78.0769 43.282 77.5368 43.2302 77.0272 43.0716C76.5165 42.9136 76.0599 42.6965 75.6579 42.4214C75.2559 42.1462 74.9573 41.7413 74.7648 41.2081C74.5716 40.6747 74.5165 40.0536 74.5976 39.3452C74.7499 38.307 75.0751 36.9625 75.5722 35.3123C76.0633 33.6821 76.3419 32.7186 76.4071 32.4226C76.4086 32.4156 76.41 32.4094 76.4117 32.4016C76.5513 31.5305 76.673 30.4422 76.7778 29.1369C76.8821 27.8265 77.0151 26.8526 77.1751 26.2158C77.5432 24.9429 78.4724 24.1181 79.9628 23.7411C81.4523 23.3648 82.8369 23.3418 84.1157 23.672C84.6635 23.8137 85.0802 23.968 85.3656 24.1354C85.6135 24.2806 85.7841 24.527 85.8451 24.807M83.7655 25.8395L85.4017 25.0914C85.955 24.8381 86.5205 24.6144 87.0968 24.4193C87.1402 24.4045 87.1843 24.3898 87.2304 24.3739C87.7403 24.2016 88.2446 24.0583 88.7432 23.944C89.2409 23.8303 89.8289 23.7407 90.5053 23.6759C91.1816 23.611 91.8048 23.6053 92.3735 23.6569C92.942 23.7094 93.5147 23.8567 94.0901 24.0978C94.6654 24.3397 95.1496 24.6749 95.5428 25.1033C95.9357 25.5325 96.2464 26.1256 96.4736 26.884C96.7008 27.6423 96.7855 28.5413 96.7279 29.5802C96.6229 31.8245 96.4158 33.8082 96.1045 35.5301C95.7923 37.2525 95.4727 38.55 95.1428 39.4211C94.8127 40.293 94.461 40.9394 94.0857 41.3616C93.614 41.9011 92.9423 42.3258 92.0712 42.6374C91.1993 42.9488 90.3516 43.089 89.53 43.0578C88.7073 43.0271 88.005 42.743 87.4227 42.2062C86.8397 41.6692 86.5791 40.9288 86.6403 39.9838C86.7337 39.1107 86.9116 38.0896 87.1753 36.9218C87.438 35.7547 87.7166 34.6523 88.0109 33.6147L88.3537 32.4074C88.4463 32.0799 88.4581 31.7303 88.3531 31.4062C88.2926 31.2194 88.2048 31.0634 88.0895 30.9388C87.8593 30.6889 87.5843 30.5622 87.2656 30.5589C86.9466 30.5564 86.6088 30.6127 86.2532 30.727C85.8964 30.8428 85.5719 31.0041 85.2781 31.2148L82.33 33.6357" stroke="#DD57DD" stroke-width="0.489675" stroke-miterlimit="10" stroke-linecap="round"/>
<path d="M109.13 25.2619C109.535 24.6985 110.22 24.2963 111.183 24.0567C112.146 23.8171 113.092 23.7666 114.021 23.9052C114.95 24.0438 115.711 24.4406 116.305 25.0951C116.897 25.7511 117.061 26.5852 116.796 27.5991C116.171 29.8395 114.799 35.8886 112.677 45.7489C112.195 47.9898 111.306 49.7013 110.01 50.8833C108.713 52.0651 107.091 52.7296 105.141 52.8782C103.191 53.0259 100.934 52.8406 98.3703 52.3211C97.287 52.0746 96.5379 51.6191 96.1248 50.9541C95.7111 50.2881 95.6055 49.5961 95.8083 48.8773C96.0104 48.1583 96.3937 47.4764 96.9593 46.8311C97.5241 46.1857 98.1485 45.7603 98.8319 45.5539C99.3348 45.4168 99.8527 45.4032 100.385 45.5146C100.918 45.626 101.387 45.783 101.793 45.9879C102.199 46.192 102.612 46.361 103.033 46.495C103.455 46.6282 103.807 46.6374 104.093 46.5221C104.402 46.4064 104.645 46.1548 104.824 45.7665C105.002 45.3781 105.111 45.007 105.152 44.6524C105.193 44.2986 105.178 44.0625 105.109 43.9433C105.04 43.8249 104.93 43.7587 104.779 43.7455C104.627 43.7329 104.41 43.7547 104.125 43.8106C103.841 43.8672 103.518 43.935 103.158 44.0149C102.798 44.0947 102.313 44.1491 101.702 44.1788C101.092 44.2086 100.435 44.2085 99.731 44.1789C98.6352 44.098 97.6928 43.7472 96.9031 43.1257C96.1134 42.5043 95.5354 41.6955 95.1699 40.6995C94.8037 39.7034 94.5934 38.5909 94.5382 37.3618C94.4829 36.1327 94.6136 34.8396 94.9292 33.4832C95.2446 32.1275 95.7288 30.8136 96.3806 29.5436C96.7167 28.861 97.099 28.2386 97.5287 27.675C97.9575 27.1119 98.3954 26.6433 98.8435 26.2684C99.2904 25.8949 99.7459 25.5675 100.209 25.2882C100.671 25.009 101.151 24.7891 101.647 24.6276C102.144 24.4671 102.615 24.3409 103.06 24.2505C103.506 24.1604 103.969 24.0938 104.453 24.0504C104.888 24.007 105.288 23.9931 105.651 24.008C106.015 24.0237 106.338 24.0615 106.621 24.1229C106.903 24.185 107.154 24.2581 107.373 24.3421C107.591 24.4275 107.781 24.5115 107.94 24.5953C108.099 24.6798 108.234 24.7694 108.344 24.8651C108.454 24.9606 108.548 25.0445 108.627 25.1162C108.706 25.1877 108.776 25.2475 108.837 25.2955C108.898 25.344 108.952 25.362 109.003 25.3504C109.053 25.3395 109.095 25.3104 109.128 25.2631L109.13 25.2619ZM106.518 37.3973C106.882 36.4789 107.192 35.3951 107.449 34.1441C107.706 32.8938 107.852 31.8552 107.889 31.0282C107.889 30.6973 107.638 30.4353 107.134 30.2413C106.631 30.0481 106.044 30.0838 105.371 30.3497C104.698 30.6155 104.181 31.1491 103.819 31.9486C102.851 34.1377 102.873 35.8521 103.885 37.0894C104.483 37.8276 105.131 38.1168 105.829 37.9577C106.151 37.8899 106.381 37.7033 106.518 37.3964L106.518 37.3973Z" fill="url(#paint7_linear_501_1889)"/>
<path d="M102.947 35.6147C103.057 35.7485 103.166 35.8678 103.279 35.9721C102.935 34.8829 103.115 33.542 103.819 31.9494C104.18 31.1491 104.697 30.6163 105.37 30.3505C105.944 30.1237 107.075 30.1995 108.173 30.9511C108.194 30.7334 108.022 29.7356 107.513 29.3688C107.084 29.0198 106.698 28.9608 106.196 28.767C105.692 28.5738 105.105 28.6095 104.432 28.8753C103.759 29.1412 103.242 29.6748 102.88 30.4743C101.912 32.6634 101.934 34.3777 102.946 35.6151L102.947 35.6147Z" fill="white"/>
<path d="M116.304 25.0951C116.188 24.9661 116.064 24.848 115.934 24.7388C116.016 25.1559 115.99 25.6167 115.858 26.1234C115.234 28.3637 113.861 34.4129 111.74 44.2731C111.257 46.5141 110.368 48.2256 109.072 49.4075C107.776 50.5893 106.153 51.2539 104.203 51.4024C102.253 51.5502 99.9963 51.3648 97.4326 50.8454C96.7436 50.6884 96.1903 50.4466 95.772 50.1204C95.8382 50.4023 95.9552 50.6801 96.1247 50.9533C96.5378 51.6183 97.2868 52.0746 98.3703 52.3203C100.934 52.8398 103.191 53.0244 105.141 52.8774C107.09 52.7294 108.713 52.0641 110.01 50.8825C111.306 49.7005 112.195 47.989 112.677 45.7481C114.799 35.8888 116.172 29.8389 116.796 27.5984C117.061 26.5846 116.897 25.7503 116.304 25.0943L116.304 25.0951Z" fill="white"/>
<path d="M104.582 42.1382C104.939 42.0488 107.169 42.0992 107.129 42.453C107.105 42.6618 106.583 43.1076 106.511 43.3285C106.24 43.3833 103.496 43.9407 103.158 44.0149C102.798 44.0947 102.312 44.1491 101.702 44.1789C101.182 44.2043 100.628 44.2075 100.04 44.1898C99.8516 44.1323 99.6545 44.0818 99.4467 44.0387C99.1438 43.9753 98.8462 43.9538 98.5531 43.971C97.9438 43.7935 97.3937 43.5122 96.9029 43.1258C96.2023 42.574 95.6685 41.8747 95.3022 41.029C95.5038 41.2537 95.7249 41.4607 95.966 41.651C96.7557 42.2725 97.6982 42.6232 98.794 42.7041C99.4983 42.7337 100.155 42.734 100.765 42.7041C101.376 42.6744 101.86 42.6198 102.221 42.5401C102.581 42.4611 102.903 42.3932 103.188 42.3358L104.581 42.139L104.582 42.1382Z" fill="white"/>
<path d="M110.28 28.4259L107.142 42.4502C106.537 43.5483 104.83 43.739 104.78 43.7457L103.159 44.0151C102.799 44.0949 102.313 44.1493 101.703 44.179C101.092 44.2088 100.436 44.2087 99.7318 44.1791C98.636 44.0982 97.6935 43.7474 96.9038 43.1259C96.1141 42.5044 95.5361 41.6956 95.1707 40.6997C94.8044 39.7036 94.5941 38.5911 94.5389 37.362C94.4837 36.1329 94.6143 34.8398 94.9299 33.4834C95.2453 32.1277 95.7296 30.8138 96.3813 29.5438C96.7174 28.8612 97.0998 28.2388 97.5295 27.6751C97.9582 27.1121 98.3961 26.6435 98.8442 26.2686C99.2912 25.8951 99.7466 25.5677 100.209 25.2884C100.672 25.0092 101.152 24.7893 101.648 24.6278C102.145 24.4672 102.616 24.341 103.061 24.2507C103.507 24.1606 103.97 24.0939 104.454 24.0506C104.889 24.0072 105.289 23.9933 105.652 24.0082C106.016 24.0239 106.339 24.0617 106.622 24.1231C106.904 24.1852 107.155 24.2583 107.374 24.3423C107.402 24.3534 107.432 24.365 107.462 24.3776C107.763 24.5019 108.051 24.6576 108.317 24.8451C108.326 24.8522 108.336 24.8593 108.345 24.8653C110.533 26.4442 110.28 28.4275 110.28 28.4275M109.041 25.3777C109.446 24.8143 110.22 24.2963 111.183 24.0567C112.146 23.8171 113.092 23.7666 114.021 23.9052C114.95 24.0438 115.711 24.4406 116.304 25.0951C116.897 25.7511 117.061 26.5852 116.796 27.5991C116.171 29.8395 114.799 35.8886 112.677 45.7489C112.195 47.9898 111.306 49.7013 110.01 50.8833C108.713 52.0651 107.091 52.7296 105.141 52.8782C103.191 53.0259 100.934 52.8406 98.3703 52.3211C97.2869 52.0746 96.5378 51.6191 96.1247 50.9541C95.711 50.2882 95.6055 49.5962 95.8083 48.8773C96.0103 48.1583 96.3936 47.4764 96.9592 46.8312C97.524 46.1857 98.1484 45.7603 98.8319 45.5539C99.3348 45.4169 99.8526 45.4032 100.385 45.5146C100.918 45.626 101.387 45.783 101.793 45.988C102.199 46.192 102.612 46.361 103.033 46.495C103.455 46.6282 103.807 46.6374 104.093 46.5221C104.402 46.4064 104.645 46.1548 104.823 45.7665C105.002 45.3781 105.111 45.007 105.152 44.6524C105.193 44.2986 105.195 43.898 105.126 43.7788M108.502 32.1202C108.504 31.9858 108.445 31.1932 107.825 30.6666C107.594 30.4705 107.355 30.3272 107.134 30.2421C106.631 30.0489 106.043 30.0846 105.37 30.3505C104.697 30.6163 104.18 31.1499 103.819 31.9494C102.851 34.1385 102.872 35.8529 103.884 37.0902C104.483 37.8284 105.131 38.1176 105.829 37.9585C106.151 37.8907 106.38 37.7041 106.518 37.3972C106.881 36.4788 107.191 35.3949 107.448 34.1439C107.671 33.0617 107.811 32.1376 107.867 31.3722C107.883 31.1536 107.869 30.9339 107.826 30.7184L107.82 30.6859" stroke="#DD57DD" stroke-width="0.489675" stroke-miterlimit="10" stroke-linecap="round"/>
<path d="M79.8885 26.3803C80.5964 25.8992 80.9698 25.2142 80.7225 24.8502C80.4751 24.4862 79.7007 24.5811 78.9928 25.0622C78.2849 25.5433 77.9116 26.2283 78.1589 26.5923C78.4062 26.9562 79.1806 26.8613 79.8885 26.3803Z" fill="white"/>
<path d="M100.855 27.6478C101.563 27.1667 101.936 26.4817 101.689 26.1177C101.442 25.7538 100.667 25.8487 99.9593 26.3297C99.2514 26.8108 98.8781 27.4958 99.1254 27.8598C99.3727 28.2238 100.147 28.1288 100.855 27.6478Z" fill="white"/>
</g>
<defs>
<linearGradient id="paint0_linear_501_1889" x1="18.1249" y1="18.401" x2="14.405" y2="43.8934" gradientUnits="userSpaceOnUse">
<stop offset="0.03" stop-color="#F18FFF"/>
<stop offset="1" stop-color="#FFE3B0"/>
</linearGradient>
<linearGradient id="paint1_linear_501_1889" x1="34.189" y1="21.9542" x2="30.9979" y2="43.8224" gradientUnits="userSpaceOnUse">
<stop stop-color="#F18FFF"/>
<stop offset="1" stop-color="#FFE3B0"/>
</linearGradient>
<linearGradient id="paint2_linear_501_1889" x1="49.6898" y1="18.4755" x2="46.0706" y2="43.2772" gradientUnits="userSpaceOnUse">
<stop stop-color="#F18FFF"/>
<stop offset="1" stop-color="#FFE3B0"/>
</linearGradient>
<linearGradient id="paint3_linear_501_1889" x1="58.3589" y1="18.5524" x2="54.7398" y2="43.3534" gradientUnits="userSpaceOnUse">
<stop stop-color="#F18FFF"/>
<stop offset="1" stop-color="#FFE3B0"/>
</linearGradient>
<linearGradient id="paint4_linear_501_1889" x1="74.278" y1="23.7901" x2="71.5223" y2="42.6749" gradientUnits="userSpaceOnUse">
<stop stop-color="#F18FFF"/>
<stop offset="1" stop-color="#FFE3B0"/>
</linearGradient>
<linearGradient id="paint5_linear_501_1889" x1="72.5678" y1="20.0938" x2="79.6559" y2="21.1282" gradientUnits="userSpaceOnUse">
<stop stop-color="#F18FFF"/>
<stop offset="1" stop-color="#FFE3B0"/>
</linearGradient>
<linearGradient id="paint6_linear_501_1889" x1="87.48" y1="22.93" x2="84.3782" y2="44.1865" gradientUnits="userSpaceOnUse">
<stop stop-color="#F18FFF"/>
<stop offset="1" stop-color="#FFE3B0"/>
</linearGradient>
<linearGradient id="paint7_linear_501_1889" x1="106.967" y1="22.8671" x2="102.573" y2="52.9804" gradientUnits="userSpaceOnUse">
<stop stop-color="#F18FFF"/>
<stop offset="1" stop-color="#FFE3B0"/>
</linearGradient>
<clipPath id="clip0_501_1889">
<rect width="109.929" height="44.8463" fill="white" transform="translate(10.5614 0.0343323) rotate(12.5722)"/>
</clipPath>
</defs>
</svg>
