<svg width="10" height="11" viewBox="0 0 10 11" fill="none" xmlns="http://www.w3.org/2000/svg">
<path d="M1.5 10.25C1.225 10.25 0.989583 10.1521 0.79375 9.95625C0.597917 9.76042 0.5 9.525 0.5 9.25V2.25C0.5 1.975 0.597917 1.73958 0.79375 1.54375C0.989583 1.34792 1.225 1.25 1.5 1.25H2V0.25H3V1.25H7V0.25H8V1.25H8.5C8.775 1.25 9.01042 1.34792 9.20625 1.54375C9.40208 1.73958 9.5 1.975 9.5 2.25V9.25C9.5 9.525 9.40208 9.76042 9.20625 9.95625C9.01042 10.1521 8.775 10.25 8.5 10.25H1.5ZM1.5 9.25H8.5V4.25H1.5V9.25ZM1.5 3.25H8.5V2.25H1.5V3.25ZM5 6.25C4.85833 6.25 4.73958 6.20208 4.64375 6.10625C4.54792 6.01042 4.5 5.89167 4.5 5.75C4.5 5.60833 4.54792 5.48958 4.64375 5.39375C4.73958 5.29792 4.85833 5.25 5 5.25C5.14167 5.25 5.26042 5.29792 5.35625 5.39375C5.45208 5.48958 5.5 5.60833 5.5 5.75C5.5 5.89167 5.45208 6.01042 5.35625 6.10625C5.26042 6.20208 5.14167 6.25 5 6.25ZM3 6.25C2.85833 6.25 2.73958 6.20208 2.64375 6.10625C2.54792 6.01042 2.5 5.89167 2.5 5.75C2.5 5.60833 2.54792 5.48958 2.64375 5.39375C2.73958 5.29792 2.85833 5.25 3 5.25C3.14167 5.25 3.26042 5.29792 3.35625 5.39375C3.45208 5.48958 3.5 5.60833 3.5 5.75C3.5 5.89167 3.45208 6.01042 3.35625 6.10625C3.26042 6.20208 3.14167 6.25 3 6.25ZM7 6.25C6.85833 6.25 6.73958 6.20208 6.64375 6.10625C6.54792 6.01042 6.5 5.89167 6.5 5.75C6.5 5.60833 6.54792 5.48958 6.64375 5.39375C6.73958 5.29792 6.85833 5.25 7 5.25C7.14167 5.25 7.26042 5.29792 7.35625 5.39375C7.45208 5.48958 7.5 5.60833 7.5 5.75C7.5 5.89167 7.45208 6.01042 7.35625 6.10625C7.26042 6.20208 7.14167 6.25 7 6.25ZM5 8.25C4.85833 8.25 4.73958 8.20208 4.64375 8.10625C4.54792 8.01042 4.5 7.89167 4.5 7.75C4.5 7.60833 4.54792 7.48958 4.64375 7.39375C4.73958 7.29792 4.85833 7.25 5 7.25C5.14167 7.25 5.26042 7.29792 5.35625 7.39375C5.45208 7.48958 5.5 7.60833 5.5 7.75C5.5 7.89167 5.45208 8.01042 5.35625 8.10625C5.26042 8.20208 5.14167 8.25 5 8.25ZM3 8.25C2.85833 8.25 2.73958 8.20208 2.64375 8.10625C2.54792 8.01042 2.5 7.89167 2.5 7.75C2.5 7.60833 2.54792 7.48958 2.64375 7.39375C2.73958 7.29792 2.85833 7.25 3 7.25C3.14167 7.25 3.26042 7.29792 3.35625 7.39375C3.45208 7.48958 3.5 7.60833 3.5 7.75C3.5 7.89167 3.45208 8.01042 3.35625 8.10625C3.26042 8.20208 3.14167 8.25 3 8.25ZM7 8.25C6.85833 8.25 6.73958 8.20208 6.64375 8.10625C6.54792 8.01042 6.5 7.89167 6.5 7.75C6.5 7.60833 6.54792 7.48958 6.64375 7.39375C6.73958 7.29792 6.85833 7.25 7 7.25C7.14167 7.25 7.26042 7.29792 7.35625 7.39375C7.45208 7.48958 7.5 7.60833 7.5 7.75C7.5 7.89167 7.45208 8.01042 7.35625 8.10625C7.26042 8.20208 7.14167 8.25 7 8.25Z" fill="#C8C8C8"/>
</svg>
