<svg width="8" height="11" viewBox="0 0 8 11" fill="none" xmlns="http://www.w3.org/2000/svg">
<path d="M4 0.25C2.065 0.25 0.5 1.815 0.5 3.75C0.5 6.375 4 10.25 4 10.25C4 10.25 7.5 6.375 7.5 3.75C7.5 1.815 5.935 0.25 4 0.25ZM1.5 3.75C1.5 2.37 2.62 1.25 4 1.25C5.38 1.25 6.5 2.37 6.5 3.75C6.5 5.19 5.06 7.345 4 8.69C2.96 7.355 1.5 5.175 1.5 3.75Z" fill="#C8C8C8"/>
<path d="M4 5C4.69036 5 5.25 4.44036 5.25 3.75C5.25 3.05964 4.69036 2.5 4 2.5C3.30964 2.5 2.75 3.05964 2.75 3.75C2.75 4.44036 3.30964 5 4 5Z" fill="#C8C8C8"/>
</svg>
