<svg width="16" height="15" viewBox="0 0 16 15" fill="none" xmlns="http://www.w3.org/2000/svg">
<path d="M1 6.5C0.447715 6.5 -4.82823e-08 6.94772 0 7.5C4.82823e-08 8.05228 0.447715 8.5 1 8.5L1 6.5ZM15.7071 8.20711C16.0976 7.81658 16.0976 7.18342 15.7071 6.79289L9.34314 0.428931C8.95262 0.0384071 8.31946 0.0384072 7.92893 0.428932C7.53841 0.819456 7.53841 1.45262 7.92893 1.84315L13.5858 7.5L7.92893 13.1569C7.53841 13.5474 7.53841 14.1805 7.92893 14.5711C8.31946 14.9616 8.95262 14.9616 9.34315 14.5711L15.7071 8.20711ZM1 8.5L15 8.5L15 6.5L1 6.5L1 8.5Z" fill="black"/>
</svg>
