<svg width="20" height="21" viewBox="0 0 20 21" fill="none" xmlns="http://www.w3.org/2000/svg">
<path d="M10.0002 18.625C10.9168 18.625 11.6668 17.875 11.6668 16.9583H8.3335C8.3335 17.875 9.0835 18.625 10.0002 18.625ZM15.0002 13.625V9.45833C15.0002 6.9 13.6418 4.75833 11.2502 4.19167V3.625C11.2502 2.93333 10.6918 2.375 10.0002 2.375C9.3085 2.375 8.75016 2.93333 8.75016 3.625V4.19167C6.36683 4.75833 5.00016 6.89167 5.00016 9.45833V13.625L3.3335 15.2917V16.125H16.6668V15.2917L15.0002 13.625ZM13.3335 14.4583H6.66683V9.45833C6.66683 7.39167 7.92516 5.70833 10.0002 5.70833C12.0752 5.70833 13.3335 7.39167 13.3335 9.45833V14.4583Z" fill="white"/>
</svg>
