<svg width="13" height="13" viewBox="0 0 13 13" fill="none" xmlns="http://www.w3.org/2000/svg">
<mask id="mask0_230_298" style="mask-type:alpha" maskUnits="userSpaceOnUse" x="0" y="0" width="13" height="13">
<rect x="0.5" y="0.25" width="12" height="12" fill="#959595"/>
</mask>
<g mask="url(#mask0_230_298)">
<path d="M3 11.25C2.725 11.25 2.48958 11.1521 2.29375 10.9562C2.09792 10.7604 2 10.525 2 10.25V3.25C2 2.975 2.09792 2.73958 2.29375 2.54375C2.48958 2.34792 2.725 2.25 3 2.25H3.5V1.25H4.5V2.25H8.5V1.25H9.5V2.25H10C10.275 2.25 10.5104 2.34792 10.7062 2.54375C10.9021 2.73958 11 2.975 11 3.25V10.25C11 10.525 10.9021 10.7604 10.7062 10.9562C10.5104 11.1521 10.275 11.25 10 11.25H3ZM3 10.25H10V5.25H3V10.25ZM3 4.25H10V3.25H3V4.25ZM6.5 7.25C6.35833 7.25 6.23958 7.20208 6.14375 7.10625C6.04792 7.01042 6 6.89167 6 6.75C6 6.60833 6.04792 6.48958 6.14375 6.39375C6.23958 6.29792 6.35833 6.25 6.5 6.25C6.64167 6.25 6.76042 6.29792 6.85625 6.39375C6.95208 6.48958 7 6.60833 7 6.75C7 6.89167 6.95208 7.01042 6.85625 7.10625C6.76042 7.20208 6.64167 7.25 6.5 7.25ZM4.5 7.25C4.35833 7.25 4.23958 7.20208 4.14375 7.10625C4.04792 7.01042 4 6.89167 4 6.75C4 6.60833 4.04792 6.48958 4.14375 6.39375C4.23958 6.29792 4.35833 6.25 4.5 6.25C4.64167 6.25 4.76042 6.29792 4.85625 6.39375C4.95208 6.48958 5 6.60833 5 6.75C5 6.89167 4.95208 7.01042 4.85625 7.10625C4.76042 7.20208 4.64167 7.25 4.5 7.25ZM8.5 7.25C8.35833 7.25 8.23958 7.20208 8.14375 7.10625C8.04792 7.01042 8 6.89167 8 6.75C8 6.60833 8.04792 6.48958 8.14375 6.39375C8.23958 6.29792 8.35833 6.25 8.5 6.25C8.64167 6.25 8.76042 6.29792 8.85625 6.39375C8.95208 6.48958 9 6.60833 9 6.75C9 6.89167 8.95208 7.01042 8.85625 7.10625C8.76042 7.20208 8.64167 7.25 8.5 7.25ZM6.5 9.25C6.35833 9.25 6.23958 9.20208 6.14375 9.10625C6.04792 9.01042 6 8.89167 6 8.75C6 8.60833 6.04792 8.48958 6.14375 8.39375C6.23958 8.29792 6.35833 8.25 6.5 8.25C6.64167 8.25 6.76042 8.29792 6.85625 8.39375C6.95208 8.48958 7 8.60833 7 8.75C7 8.89167 6.95208 9.01042 6.85625 9.10625C6.76042 9.20208 6.64167 9.25 6.5 9.25ZM4.5 9.25C4.35833 9.25 4.23958 9.20208 4.14375 9.10625C4.04792 9.01042 4 8.89167 4 8.75C4 8.60833 4.04792 8.48958 4.14375 8.39375C4.23958 8.29792 4.35833 8.25 4.5 8.25C4.64167 8.25 4.76042 8.29792 4.85625 8.39375C4.95208 8.48958 5 8.60833 5 8.75C5 8.89167 4.95208 9.01042 4.85625 9.10625C4.76042 9.20208 4.64167 9.25 4.5 9.25ZM8.5 9.25C8.35833 9.25 8.23958 9.20208 8.14375 9.10625C8.04792 9.01042 8 8.89167 8 8.75C8 8.60833 8.04792 8.48958 8.14375 8.39375C8.23958 8.29792 8.35833 8.25 8.5 8.25C8.64167 8.25 8.76042 8.29792 8.85625 8.39375C8.95208 8.48958 9 8.60833 9 8.75C9 8.89167 8.95208 9.01042 8.85625 9.10625C8.76042 9.20208 8.64167 9.25 8.5 9.25Z" fill="#C8C8C8"/>
</g>
</svg>
