<svg width="16" height="16" viewBox="0 0 16 16" fill="none" xmlns="http://www.w3.org/2000/svg">
<path d="M8.00016 1.33331C5.42016 1.33331 3.3335 3.41998 3.3335 5.99998C3.3335 9.49998 8.00016 14.6666 8.00016 14.6666C8.00016 14.6666 12.6668 9.49998 12.6668 5.99998C12.6668 3.41998 10.5802 1.33331 8.00016 1.33331ZM4.66683 5.99998C4.66683 4.15998 6.16016 2.66665 8.00016 2.66665C9.84016 2.66665 11.3335 4.15998 11.3335 5.99998C11.3335 7.91998 9.4135 10.7933 8.00016 12.5866C6.6135 10.8066 4.66683 7.89998 4.66683 5.99998Z" fill="#CBCBCB"/>
<path d="M8.00016 7.66665C8.92064 7.66665 9.66683 6.92045 9.66683 5.99998C9.66683 5.07951 8.92064 4.33331 8.00016 4.33331C7.07969 4.33331 6.3335 5.07951 6.3335 5.99998C6.3335 6.92045 7.07969 7.66665 8.00016 7.66665Z" fill="#CBCBCB"/>
</svg>
