<svg width="24" height="24" viewBox="0 0 24 24" fill="none" xmlns="http://www.w3.org/2000/svg">
<mask id="mask0_320_4218" style="mask-type:alpha" maskUnits="userSpaceOnUse" x="0" y="0" width="24" height="24">
<rect width="24" height="24" fill="#D9D9D9"/>
</mask>
<g mask="url(#mask0_320_4218)">
<path d="M10 21C8.9 21 7.95833 20.6083 7.175 19.825C6.39167 19.0417 6 18.1 6 17C6 15.9 6.39167 14.9583 7.175 14.175C7.95833 13.3917 8.9 13 10 13C10.3833 13 10.7375 13.0458 11.0625 13.1375C11.3875 13.2292 11.7 13.3667 12 13.55V3H18V7H14V17C14 18.1 13.6083 19.0417 12.825 19.825C12.0417 20.6083 11.1 21 10 21Z" fill="white"/>
</g>
</svg>
