<svg width="130" height="166" viewBox="0 0 130 166" fill="none" xmlns="http://www.w3.org/2000/svg">
<path d="M45.2343 108.72C37.9995 112.59 29.3867 111.883 22.8664 106.869C17.8645 103.025 13.7176 95.9918 16.8438 89.7047C17.0479 89.2933 16.9076 88.599 16.3716 88.5219C9.00923 87.429 3.82875 81.6562 2.18273 74.5206C0.35808 66.665 2.87176 58.3979 8.42228 52.6509C8.67748 52.3937 8.71576 51.9952 8.54988 51.6737C4.12222 43.6124 4.55606 33.5454 10.0173 26.0883C15.0446 19.2356 23.0067 15.417 31.3772 14.9927C34.2481 14.8513 37.1701 15.0056 39.9901 15.597C40.3346 15.6613 40.7174 15.5585 40.896 15.2242C46.1658 5.29858 56.6799 0.8372 67.6023 1.81433C74.9902 2.47004 81.7912 6.18571 85.4788 12.7942C86.155 14.0156 86.793 15.327 87.1248 16.6899C87.2269 17.1013 87.699 17.3841 88.1073 17.2556C97.3964 14.1956 107.757 16.7927 114.341 24.1341C120.926 31.4754 122.469 43.201 117.774 52.3294C117.519 52.818 117.761 53.3194 118.246 53.5123C119.522 54.0009 120.581 54.7594 121.512 55.7751C122.214 56.5337 123.337 55.3894 122.635 54.6437C121.5 53.4351 120.198 52.5737 118.654 51.9694L119.126 53.1523C122.942 45.7209 123.197 36.8882 119.624 29.3026C116.051 21.717 109.084 16.4199 101.084 14.8513C96.6053 13.977 91.9863 14.2856 87.6479 15.7127L88.6305 16.2784C87.5969 12.0356 84.5856 8.04997 81.2425 5.38857C73.2676 -0.975636 61.1331 -1.42563 52.0353 2.58575C46.5996 4.99001 42.2613 9.19424 39.4541 14.4399L40.3601 14.067C33.2401 12.5885 25.4056 13.2828 18.8726 16.5484C10.5404 20.7013 4.40294 29.0969 3.87979 38.5596C3.61183 43.3938 4.81125 48.2795 7.13354 52.5094L7.26114 51.5323C-1.49209 60.5708 -3.15087 76.9634 6.84006 85.8605C9.40479 88.149 12.5437 89.589 15.925 90.0904L15.4529 88.9076C12.901 94.0247 14.4959 99.7975 17.8518 104.13C21.7435 109.157 27.8172 112.41 34.1333 112.847C38.293 113.13 42.3634 112.076 46.0254 110.122C46.9314 109.633 46.1275 108.244 45.2216 108.733L45.2343 108.72Z" fill="#696969"/>
<path d="M103.177 86.1819C104.44 80.8334 105.052 75.382 104.784 69.8921C104.67 67.4878 104.453 65.0964 104.185 62.705C104.146 62.3836 104.095 59.7093 103.776 59.5293C104.159 59.735 102.87 60.8665 103.968 59.9665C104.453 59.5679 104.912 59.1436 105.359 58.7065C106.635 57.4465 107.796 56.0322 108.753 54.5151C111.343 50.4394 112.223 45.5409 111.113 40.8095C109.391 33.4554 103.534 27.5411 96.1077 26.1912C88.6815 24.8412 81.8422 27.5797 77.0063 33.2496C74.1481 36.6053 72.1192 40.2824 71.6344 44.7824C71.1495 49.2823 72.502 54.0265 74.8626 57.7422V56.9322C75.1944 56.1994 75.7303 56.6751 74.9519 56.6236C74.684 56.5979 74.3777 56.6879 74.1098 56.7008C73.1528 56.7779 72.183 56.8294 71.2261 56.8165C69.58 56.8165 67.9468 56.6622 66.3518 56.2122C63.3405 55.3637 60.4951 53.808 58.1855 51.6866C52.5329 46.4923 50.6828 38.1353 53.0178 30.8711C53.3368 29.8811 51.7929 29.4568 51.4739 30.4468C49.9555 35.1525 50.0703 40.5781 51.8567 45.1809C54.0641 50.8766 58.7342 55.1837 64.3996 57.2665C66.4411 58.0251 68.5593 58.3722 70.7412 58.4108C72.0682 58.4365 73.3952 58.3722 74.7095 58.2436C75.2199 58.1922 75.9472 58.2436 76.2407 57.7293C76.5341 57.2151 76.1003 56.7008 75.8579 56.2637C75.2454 55.158 74.7222 53.988 74.3012 52.7794C73.038 49.1666 72.7572 45.3995 73.8673 41.6967C75.1816 37.351 78.4864 33.1211 82.2123 30.5625C86.423 27.6697 91.5652 26.7697 96.516 27.9011C101.467 29.0325 104.963 31.8868 107.426 36.0139C110.884 41.8124 110.769 48.768 106.915 54.348C105.716 56.0965 104.019 57.5494 102.666 58.925C101.799 59.8122 102.437 61.5222 102.564 62.6664C103.457 70.4706 103.445 78.0305 101.62 85.719C101.378 86.7219 102.921 87.159 103.164 86.1433L103.177 86.1819Z" fill="#696969"/>
<path d="M51.6908 34.574C48.0925 28.5312 41.215 24.147 34.146 24.3784C23.9765 24.7127 14.9425 33.494 15.3763 43.9467C15.5039 46.981 16.3844 49.9638 17.8645 52.6123C19.4595 55.4666 21.7435 57.4723 24.053 59.6965L23.8489 58.9123C21.6542 64.8522 20.6972 71.3707 21.2331 77.6835C21.9987 86.7991 26.0435 95.2718 32.6276 101.559C42.4271 110.932 56.1822 114.956 69.4907 113.22C79.2902 111.934 88.439 107.525 95.6356 100.71C96.3884 100.003 95.2528 98.8589 94.5127 99.5789C83.9731 109.582 69.0569 113.927 54.8424 111.253C39.3648 108.335 25.7756 96.4804 23.1726 80.4477C22.037 73.4149 22.9429 66.0222 25.4056 59.3494C25.4949 59.0923 25.3928 58.7451 25.2014 58.5651C23.364 56.7909 21.4628 55.2094 20.0337 53.0623C18.6046 50.9152 17.6603 48.601 17.2265 46.1196C16.3588 41.1825 17.8517 36.0782 21.1183 32.3111C27.3323 25.1755 37.8974 23.9541 45.3364 29.8426C47.2631 31.3597 49.0622 33.2626 50.3255 35.384C50.8486 36.2711 52.2267 35.4611 51.7035 34.574H51.6908Z" fill="#696969"/>
<path d="M44.4944 36.541C37.7062 40.1152 32.0153 45.2837 27.8939 51.7894L29.1444 51.6222C26.9624 49.578 25.1123 47.0323 24.6274 43.998C24.2318 41.5038 24.9336 38.9967 26.3245 36.9267C28.6467 33.4682 32.9851 30.9611 37.1958 31.9639C40.2582 32.6968 42.5294 35.0624 44.1882 37.6338C44.7496 38.4953 46.1277 37.6981 45.5662 36.8238C43.8564 34.1753 41.6235 31.7968 38.6249 30.7168C36.3919 29.9068 33.891 29.9839 31.6581 30.7811C26.7072 32.5553 22.6879 37.5695 22.9303 43.0081C23.0962 46.8652 25.2781 50.1823 28.0087 52.7537C28.3915 53.1137 28.9785 53.0365 29.2592 52.5865C33.2403 46.3123 38.7398 41.3624 45.2855 37.9167C46.1915 37.441 45.3876 36.0524 44.4817 36.5281L44.4944 36.541Z" fill="#696969"/>
<path d="M82.9009 39.3182C89.4467 42.7639 94.9462 47.701 98.9272 53.9881C99.2079 54.4381 99.7949 54.5152 100.178 54.1552C102.615 51.8667 104.644 48.9738 105.141 45.5796C105.55 42.7382 104.835 39.8711 103.24 37.5054C100.497 33.4297 95.5203 30.6269 90.5695 31.8098C87.0989 32.6326 84.4959 35.3069 82.6202 38.2254C82.0587 39.0997 83.4368 39.8968 83.9982 39.0354C85.5039 36.7083 87.5072 34.4969 90.1867 33.5969C92.1262 32.9412 94.1806 33.044 96.1073 33.7383C100.42 35.2811 103.865 39.7297 103.661 44.4225C103.508 47.8424 101.466 50.7738 99.0548 53.0366L100.305 53.2038C96.1838 46.6981 90.493 41.5296 83.7048 37.9554C82.7988 37.4797 81.9822 38.8682 82.9009 39.344V39.3182Z" fill="#696969"/>
<path d="M83.5041 57.9727C83.5041 57.9727 83.3456 58.1698 83.4595 58.0406C83.4215 58.0837 83.3836 58.1268 83.3423 58.1822C83.2507 58.2775 83.1625 58.3603 83.0586 58.4523C83.1435 58.3819 83.0776 58.4308 83.0273 58.4705C82.9803 58.4979 82.93 58.5376 82.8831 58.565C82.7891 58.6197 82.6829 58.6711 82.589 58.7258C82.7422 58.647 82.561 58.7316 82.5297 58.7498C82.4738 58.7615 82.4268 58.7888 82.3708 58.8004C82.3149 58.8121 82.2713 58.827 82.2153 58.8386C82.175 58.8411 81.9858 58.857 82.1593 58.8503C82.0541 58.8487 81.9422 58.8719 81.8369 58.8703C81.772 58.8662 81.707 58.8622 81.6421 58.8581C81.7473 58.8596 81.716 58.8779 81.6421 58.8581C81.5435 58.8316 81.4325 58.8019 81.3339 58.7755C81.2477 58.7524 81.2173 58.7176 81.3216 58.7722C81.2633 58.7433 81.205 58.7143 81.1344 58.6821C81.0884 58.6565 81.0301 58.6275 80.9875 58.5895C80.9325 58.5481 80.8809 58.4944 80.9628 58.5829C80.8652 58.5035 80.7833 58.415 80.689 58.3232C80.6496 58.2727 80.589 58.2032 80.6553 58.3008C80.616 58.2504 80.58 58.1875 80.544 58.1246C80.4777 58.027 80.4271 57.9202 80.3764 57.8135C80.4271 57.9202 80.3731 57.8259 80.3617 57.7696C80.3504 57.7133 80.3267 57.6537 80.3031 57.5942C80.2827 57.5222 80.2624 57.4502 80.2544 57.3815C80.2487 57.3533 80.228 57.1348 80.2374 57.297C80.1893 56.8848 79.9027 56.4753 79.4348 56.4963C79.0441 56.5247 78.5858 56.8545 78.6362 57.3073C78.8045 58.7499 79.7205 60.1135 81.2138 60.4071C82.7071 60.7008 84.0546 60.0103 84.8913 58.8103C85.13 58.4616 84.9763 57.9013 84.6052 57.7087C84.2005 57.4938 83.7675 57.6307 83.5098 58.0008L83.5041 57.9727Z" fill="#696969"/>
<path d="M42.5701 58.135C42.5701 58.135 42.7286 58.3321 42.6147 58.2029C42.6527 58.246 42.6906 58.289 42.7319 58.3445C42.8235 58.4398 42.9118 58.5226 43.0156 58.6146C42.9307 58.5442 42.9967 58.5931 43.047 58.6328C43.0939 58.6602 43.1442 58.6999 43.1912 58.7273C43.2851 58.782 43.3913 58.8334 43.4852 58.8881C43.332 58.8093 43.5132 58.8939 43.5445 58.9121C43.6005 58.9238 43.6474 58.9511 43.7034 58.9627C43.7593 58.9744 43.803 58.9893 43.8589 59.0009C43.8992 59.0034 44.0884 59.0193 43.9149 59.0125C44.0201 59.011 44.132 59.0342 44.2373 59.0326C44.3022 59.0285 44.3672 59.0245 44.4322 59.0204C44.3269 59.0219 44.3582 59.0402 44.4322 59.0204C44.5308 58.9939 44.6417 58.9642 44.7403 58.9378C44.8266 58.9147 44.8569 58.8799 44.7526 58.9345C44.8109 58.9056 44.8692 58.8766 44.9398 58.8444C44.9858 58.8188 45.0441 58.7898 45.0867 58.7518C45.1417 58.7104 45.1934 58.6567 45.1114 58.7452C45.209 58.6658 45.291 58.5773 45.3853 58.4855C45.4246 58.435 45.4852 58.3655 45.4189 58.4631C45.4582 58.4127 45.4942 58.3498 45.5302 58.2869C45.5965 58.1893 45.6472 58.0825 45.6978 57.9758C45.6472 58.0825 45.7012 57.9882 45.7125 57.9319C45.7238 57.8756 45.7475 57.816 45.7712 57.7565C45.7915 57.6845 45.8118 57.6125 45.8198 57.5438C45.8255 57.5156 45.8462 57.2971 45.8368 57.4593C45.8849 57.0471 46.1715 56.6376 46.6395 56.6586C47.0302 56.687 47.4884 57.0168 47.438 57.4696C47.2697 58.9122 46.3537 60.2758 44.8604 60.5694C43.3671 60.8631 42.0196 60.1726 41.1829 58.9726C40.9442 58.6239 41.0979 58.0636 41.469 57.871C41.8737 57.6561 42.3067 57.7929 42.5644 58.1631L42.5701 58.135Z" fill="#696969"/>
<path d="M62.3073 75.1636L65.1144 75.1893C65.7014 75.1893 66.2628 74.6622 66.2245 74.0708C66.1863 73.4794 65.7397 72.9522 65.1144 72.9522L62.3073 72.9265C61.7203 72.9265 61.1589 73.4536 61.1972 74.0451C61.2354 74.6365 61.682 75.1636 62.3073 75.1636Z" fill="#696969"/>
<path d="M62.9194 74.4049V80.4091L63.1491 79.8434C61.8093 81.0134 59.755 81.4762 58.1983 80.4862C57.5093 80.0362 57.0754 79.3162 56.8713 78.5577C56.7182 78.0177 56.6799 77.7734 56.7054 77.182C56.7309 76.1534 55.1359 76.1534 55.1104 77.182C55.0594 79.1234 55.9781 81.1805 57.7645 82.0676C58.9001 82.6333 60.1888 82.7491 61.4138 82.4791C62.0518 82.3376 62.6642 82.0805 63.2257 81.7591C63.5191 81.5919 63.7871 81.3862 64.0423 81.1805C64.1699 81.0777 64.323 80.9619 64.4123 80.8205C64.5399 80.5891 64.5272 80.3191 64.5272 80.0748V74.4177C64.5272 73.3892 62.9322 73.3763 62.9322 74.4177L62.9194 74.4049Z" fill="#696969"/>
<path d="M70.9457 77.2078C70.8691 78.9949 69.6442 80.7949 67.8068 81.0392C66.467 81.2192 65.2165 80.4478 64.4509 79.4706C64.183 79.1364 63.6088 79.1878 63.3281 79.4706C62.9963 79.8049 63.0601 80.2678 63.3281 80.6021C64.0809 81.5535 65.2931 82.3249 66.4925 82.5563C68.483 82.942 70.3715 82.0163 71.5199 80.3835C72.1706 79.4578 72.4896 78.3264 72.5406 77.2078C72.5917 76.1793 70.9967 76.1793 70.9457 77.2078Z" fill="#696969"/>
<path d="M64.9735 81.9134C65.1139 82.852 65.3308 83.8034 65.6881 84.6906C65.9688 85.3848 66.3133 86.1048 66.9385 86.5291C67.5255 86.9277 68.2273 86.7605 68.7122 86.2977C69.197 85.8348 69.5033 85.102 69.7329 84.472C70.103 83.4177 70.2689 82.2992 70.3709 81.1935C70.4092 80.7692 69.9754 80.3706 69.5798 80.3963C69.1205 80.422 68.827 80.7563 68.7887 81.1935C68.7887 81.3092 68.7632 81.4377 68.7504 81.5534C68.7504 81.6177 68.7377 81.6692 68.7249 81.7335C68.7249 81.7463 68.6994 81.8877 68.7249 81.7849C68.6994 82.0034 68.6611 82.222 68.6228 82.4406C68.5463 82.8391 68.457 83.2249 68.3421 83.6106C68.2911 83.7777 68.24 83.9449 68.1762 84.112C68.1507 84.1891 68.1125 84.2663 68.0869 84.3434C68.0742 84.382 68.0231 84.4848 68.0997 84.3177C68.0869 84.3563 68.0742 84.382 68.0486 84.4206C67.9976 84.5491 67.9338 84.6777 67.8573 84.7934C67.8317 84.8448 67.7935 84.8963 67.7552 84.9605C67.7297 84.9991 67.6021 85.1663 67.6914 85.0506C67.7807 84.9348 67.6914 85.0634 67.6531 85.0891C67.6276 85.1277 67.5893 85.1534 67.551 85.192C67.4362 85.3077 67.6531 85.1406 67.5893 85.1663C67.551 85.1791 67.3979 85.2563 67.5638 85.192C67.6021 85.1791 67.7169 85.1277 67.5638 85.192C67.4745 85.2048 67.8062 85.192 67.6531 85.1791C67.9211 85.1791 67.819 85.2048 67.7297 85.1791C67.6403 85.1534 67.8317 85.192 67.8445 85.2306C67.8445 85.2306 67.7807 85.2048 67.7807 85.192C67.6531 85.0891 67.9083 85.3206 67.819 85.2306C67.7807 85.192 67.7424 85.1663 67.7041 85.1277C67.6786 85.102 67.6276 85.012 67.5893 84.9991C67.6021 84.9991 67.7041 85.1663 67.6276 85.0506C67.6021 85.012 67.5765 84.9863 67.5638 84.9477C67.4872 84.832 67.4234 84.7291 67.3724 84.6134C67.3341 84.5491 67.3086 84.472 67.2703 84.4077C67.2575 84.3691 67.232 84.3306 67.2193 84.292C67.1555 84.1506 67.2448 84.3691 67.2193 84.292C66.8747 83.392 66.6451 82.4663 66.5047 81.5149C66.4409 81.1035 65.905 80.8335 65.5222 80.9492C65.0756 81.0906 64.897 81.4892 64.9608 81.9392L64.9735 81.9134Z" fill="#696969"/>
<path d="M58.2617 82.3505C58.6445 84.279 59.0656 86.1947 59.6142 88.0847C60.0736 89.6532 60.5712 91.3632 61.541 92.7003C62.1152 93.4975 62.9956 94.2046 64.0164 93.8575C64.7947 93.6003 65.3306 92.8546 65.7134 92.1603C66.7597 90.3089 67.2956 88.149 67.7933 86.1047C68.0357 85.1019 66.5045 84.6776 66.2493 85.6804C65.8283 87.4033 65.3944 89.1775 64.6288 90.7846C64.4374 91.1961 64.2205 91.6075 63.9398 91.9675C64.0419 91.8261 63.7867 92.1346 63.7229 92.1989C63.6974 92.2246 63.5315 92.3532 63.6463 92.2632C63.7612 92.1732 63.5825 92.3018 63.557 92.3146C63.3784 92.4432 63.6846 92.3018 63.4805 92.3532C63.2891 92.3918 63.7229 92.3146 63.4039 92.3532C63.5698 92.3275 63.3146 92.2889 63.4422 92.3532C63.3656 92.3018 63.2763 92.2632 63.1997 92.2118C63.3018 92.2889 63.1104 92.1089 63.0721 92.0703C62.9701 91.9675 62.919 91.9032 62.8552 91.8132C62.0003 90.6046 61.5537 89.0618 61.1454 87.6604C60.5967 85.7704 60.1757 83.8547 59.7929 81.9262C59.5887 80.9105 58.0575 81.3476 58.2489 82.3505H58.2617Z" fill="#696969"/>
<path d="M77.4145 72.9264H85.785C86.742 72.9264 87.6479 72.0779 87.5969 71.1007C87.5458 70.1236 86.793 69.275 85.785 69.275H77.4145C76.4576 69.275 75.5516 70.1236 75.6026 71.1007C75.6537 72.0779 76.4065 72.9264 77.4145 72.9264Z" fill="#696969"/>
<path d="M77.4145 76.2435H85.785C86.742 76.2435 87.6479 75.3949 87.5969 74.4178C87.5458 73.4407 86.793 72.5921 85.785 72.5921H77.4145C76.4576 72.5921 75.5516 73.4407 75.6026 74.4178C75.6537 75.3949 76.4065 76.2435 77.4145 76.2435Z" fill="#696969"/>
<path d="M61.2654 148.808C58.9558 150.673 57.0674 153.064 55.8169 155.764C55.3831 156.702 54.6175 158.052 54.6302 159.094C54.6558 160.534 55.6765 161.64 54.5537 163.054C53.3287 164.584 50.2026 164.43 48.3524 164.34C47.5613 164.301 45.9919 164.25 45.4942 163.504C44.7031 162.308 46.5405 160.521 47.5613 160.122C47.9824 159.955 48.2121 159.595 48.1227 159.132C47.2934 154.992 48.2248 150.673 50.2664 147.021C50.4578 146.674 50.3685 146.34 50.1388 146.044C47.2806 142.418 46.8085 138.24 47.6124 133.817C48.4162 129.394 49.5646 125.061 51.0703 120.857C51.4148 119.88 49.8836 119.469 49.5263 120.433C47.842 125.139 46.464 130.114 45.8005 135.077C45.2007 139.538 46.2088 143.627 49.0032 147.188L48.8756 146.211C46.6171 150.248 45.6601 154.98 46.5788 159.557L47.1402 158.567C45.0859 159.364 42.4064 162.514 44.3841 164.661C45.9025 166.307 48.9521 166.037 50.9682 165.882C52.4738 165.767 54.1581 165.612 55.3448 164.558C56.5315 163.504 56.8632 161.832 56.5953 160.277C56.4549 159.467 56.2125 159.158 56.4932 158.374C56.8887 157.23 57.3608 156.137 57.9606 155.082C59.1089 153.09 60.6146 151.367 62.401 149.94C63.2048 149.297 62.0692 148.165 61.2781 148.808H61.2654Z" fill="#696969"/>
<path d="M66.7923 148.776C69.1018 150.64 70.9902 153.032 72.2407 155.732C72.6745 156.67 73.4401 158.02 73.4274 159.062C73.4019 160.502 72.3811 161.607 73.5039 163.022C74.7289 164.552 77.855 164.397 79.7052 164.307C80.4963 164.269 82.0658 164.217 82.5634 163.472C83.3545 162.276 81.5171 160.489 80.4963 160.09C80.0752 159.923 79.8456 159.563 79.9349 159.1C80.7643 154.96 79.8328 150.64 77.7912 146.989C77.5998 146.642 77.6891 146.307 77.9188 146.012C80.777 142.386 81.2491 138.208 80.4453 133.785C79.6414 129.362 78.493 125.029 76.9874 120.825C76.6428 119.848 78.174 119.436 78.5313 120.401C80.2156 125.106 81.5937 130.082 82.2572 135.045C82.8569 139.506 81.8488 143.595 79.0544 147.156L79.182 146.179C81.4405 150.216 82.3975 154.947 81.4788 159.524L80.9174 158.534C82.9717 159.332 85.6513 162.482 83.6735 164.629C82.1551 166.274 79.1055 166.004 77.0894 165.85C75.5838 165.734 73.8995 165.58 72.7128 164.526C71.5262 163.472 71.1944 161.8 71.4624 160.244C71.6027 159.434 71.8452 159.126 71.5644 158.342C71.1689 157.197 70.6968 156.105 70.0971 155.05C68.9487 153.057 67.443 151.335 65.6566 149.907C64.8528 149.265 65.9884 148.133 66.7795 148.776H66.7923Z" fill="#696969"/>
<path d="M56.1619 148.847C60.462 150.518 65.2724 150.608 69.6363 149.143C70.606 148.821 70.185 147.266 69.2152 147.587C65.0938 148.975 60.6406 148.86 56.5958 147.291C55.6388 146.918 55.2177 148.474 56.1747 148.847H56.1619Z" fill="#696969"/>
<path d="M61.1289 135.668V140.811C61.1289 141.313 61.5627 141.801 62.0859 141.776C62.609 141.75 63.0429 141.351 63.0429 140.811V135.668C63.0429 135.167 62.609 134.679 62.0859 134.704C61.5627 134.73 61.1289 135.129 61.1289 135.668Z" fill="#696969"/>
<path d="M64.8291 135.668V140.811C64.8291 141.313 65.2629 141.801 65.7861 141.776C66.3092 141.75 66.7431 141.351 66.7431 140.811V135.668C66.7431 135.167 66.3092 134.679 65.7861 134.704C65.2629 134.73 64.8291 135.129 64.8291 135.668Z" fill="#696969"/>
<path d="M62.3915 139.204H65.3901C65.8877 139.204 66.3726 138.767 66.3471 138.24C66.3216 137.713 65.926 137.276 65.3901 137.276H62.3915C61.8939 137.276 61.409 137.713 61.4346 138.24C61.4601 138.767 61.8556 139.204 62.3915 139.204Z" fill="#696969"/>
<path d="M88.4195 138.851C86.9648 137.437 85.6506 135.65 85.4847 133.554C85.3444 131.844 85.9696 130.199 86.8883 128.797C89.5806 124.683 94.5569 122.549 99.1887 121.636C100.197 121.443 99.7629 119.887 98.7677 120.08C93.6127 121.083 88.126 123.642 85.2933 128.322C84.3236 129.929 83.7239 131.844 83.9025 133.734C84.1449 136.19 85.5613 138.286 87.2838 139.957C88.0239 140.677 89.1468 139.546 88.4067 138.826L88.4195 138.851Z" fill="#696969"/>
<path d="M50.0535 110.379C42.9208 115.624 37.064 122.503 33.1468 130.5C32.3429 132.146 31.6156 133.83 30.9776 135.54C30.6841 136.311 30.48 137.16 30.1482 137.918C29.7782 138.767 29.0764 139.448 28.6553 140.284C27.4176 142.74 27.0986 146.288 29.0636 148.487C31.6794 151.405 36.1836 149.194 38.4038 146.957L37.434 147.086C38.8376 148.101 40.8409 149.091 42.3338 147.69C44.0692 146.044 43.9415 142.933 43.6608 140.786C43.5588 139.988 43.2142 139.114 43.2653 138.317C43.3036 137.584 43.6098 136.8 43.8012 136.093C44.2223 134.499 44.7454 132.917 45.3324 131.374C46.7487 127.697 48.6754 124.239 50.985 121.063C51.5847 120.227 50.2066 119.417 49.6069 120.253C46.1107 125.087 43.5332 130.551 42.0914 136.363C41.7851 137.571 41.5937 138.394 41.8489 139.616C42.1807 141.146 42.3721 142.778 42.1297 144.347C42.0148 145.093 41.7724 146.366 40.994 146.726C40.1008 147.15 38.9142 146.198 38.2507 145.71C37.97 145.504 37.5234 145.607 37.2809 145.838C35.8391 147.291 33.5168 148.783 31.3731 148.127C29.7016 147.613 29.1912 145.594 29.2678 144.026C29.3188 143.01 29.5868 142.007 30.0334 141.107C30.48 140.207 31.2583 139.487 31.6283 138.536C32.2791 136.864 32.7895 135.167 33.5168 133.521C37.2809 124.869 43.3036 117.347 50.8701 111.78C51.6868 111.176 50.8956 109.787 50.0663 110.392L50.0535 110.379Z" fill="#696969"/>
<path d="M83.603 84.2791H90.3912C91.3482 84.2791 92.2542 83.4305 92.2031 82.4534C92.1521 81.4762 91.3993 80.6277 90.3912 80.6277H83.603C82.646 80.6277 81.7401 81.4762 81.7911 82.4534C81.8422 83.4305 82.595 84.2791 83.603 84.2791Z" fill="#696969"/>
<path d="M36.9018 83.2247H43.6901C44.647 83.2247 45.553 82.3762 45.502 81.3991C45.4509 80.4219 44.6981 79.5734 43.6901 79.5734H36.9018C35.9449 79.5734 35.0389 80.4219 35.0899 81.3991C35.141 82.3762 35.8938 83.2247 36.9018 83.2247Z" fill="#696969"/>
<path fill-rule="evenodd" clip-rule="evenodd" d="M51.2189 71.1007C51.2563 71.8163 50.7804 72.463 50.1471 72.7578C50.7651 73.0514 51.1814 73.6999 51.2189 74.4178C51.27 75.3949 50.364 76.2435 49.4071 76.2435H41.0366C40.0286 76.2435 39.2758 75.3949 39.2247 74.4178C39.1873 73.7022 39.6632 73.0556 40.2965 72.7607C39.6785 72.4671 39.2622 71.8186 39.2247 71.1007C39.1737 70.1236 40.0796 69.275 41.0366 69.275H49.407C50.4151 69.275 51.1679 70.1236 51.2189 71.1007Z" fill="#696969"/>
<path d="M102.516 85.3795C101.514 89.5884 98.6076 96.3025 95 100.211" stroke="#696969" stroke-width="1.56329"/>
<path d="M79.9678 145.336C82.7878 145.015 85.4418 143.819 87.4834 141.813C88.4659 140.836 89.2953 139.692 89.9077 138.445C90.1119 138.021 90.3033 137.583 90.4692 137.133C90.6095 136.773 90.6733 136.375 90.9285 136.066C91.7707 135.089 93.3401 134.922 94.1568 136.015C94.9223 137.018 94.5013 138.111 94.0802 139.049C93.0977 141.222 91.6558 143.163 89.8439 144.706C87.3175 146.879 84.0765 148.152 80.7717 148.37C79.7509 148.435 79.7509 150.042 80.7717 149.978C86.9475 149.566 92.549 145.863 95.2796 140.245C95.79 139.19 96.3132 138.149 96.1728 136.941C96.0069 135.488 95.0244 134.189 93.6081 133.778C92.1917 133.366 90.584 133.945 89.6653 135.089C89.0273 135.886 88.8487 137.031 88.3638 137.943C86.6923 141.119 83.5278 143.33 79.9678 143.729C78.9598 143.845 78.9471 145.452 79.9678 145.336Z" fill="#696969"/>
<path d="M94.1619 141.898C96.1269 141.911 98.1175 141.538 99.6997 140.291C101.154 139.147 102.06 137.424 102.507 135.637C103.796 130.52 102.047 124.966 99.6614 120.453C99.1765 119.54 97.7985 120.35 98.2833 121.263C100.389 125.249 102.022 130.134 101.09 134.698C100.771 136.228 100.146 137.746 98.9851 138.8C97.6709 139.996 95.8845 140.291 94.1747 140.278C93.1539 140.278 93.1411 141.873 94.1747 141.885L94.1619 141.898Z" fill="#696969"/>
<path d="M28.957 51.6407C32.0458 45.8492 40.5399 39.5751 44.4009 37.162L42.4704 34.2663C36.2928 27.7026 29.2787 32.4967 26.5439 35.7142C20.3663 42.6639 25.5786 49.2276 28.957 51.6407Z" fill="#696969" stroke="#696969" stroke-width="0.200421"/>
<path d="M99.42 53.4696C96.3312 47.6781 87.837 41.404 83.976 38.9909L85.9065 36.0951C92.0841 29.5315 99.0982 34.3255 101.833 37.543C108.011 44.4928 102.798 51.0565 99.42 53.4696Z" fill="#696969" stroke="#696969" stroke-width="0.200421"/>
<path d="M66.1196 87.3549C64.1891 85.4244 61.4542 86.5505 60.3281 87.3549C60.3281 90.4437 62.5804 92.5028 63.7065 93.1463C66.0231 91.6019 66.2805 88.6418 66.1196 87.3549Z" fill="#696969"/>
<path d="M118.348 52.4101C125.965 56.7192 127.293 69.2321 125.965 77.6632C124.636 86.0944 116.69 94.4884 109.43 95.7011C107.426 105.622 94.1977 114.841 82.0722 108.829" stroke="#696969" stroke-width="1.93979"/>
<path d="M101.42 56.118L95.3474 74.1531C93.9333 78.6153 97.011 83.2636 101.42 83.2636" stroke="#696969" stroke-width="1.56329" stroke-linecap="round"/>
<path d="M101.503 56.118L107.575 74.1531C108.99 78.6153 105.912 83.2636 101.503 83.2636" stroke="#696969" stroke-width="1.56329" stroke-linecap="round"/>
<path d="M100.837 83.2635C96.8445 82.3711 95.3472 77.6857 95.0977 75.4545L101.37 57.192L106.909 72.6656L107.824 77.0349C107.159 79.483 104.83 84.156 100.837 83.2635Z" fill="#696969"/>
<path d="M101.419 57.0476L101.37 57.192M101.37 57.192L95.0977 75.4545C95.3472 77.6857 96.8445 82.3711 100.837 83.2635C104.83 84.156 107.159 79.483 107.824 77.0349L106.909 72.6656L101.37 57.192Z" stroke="#696969" stroke-width="1.56329"/>
<rect x="85.2168" y="132.374" width="9.66187" height="15" transform="rotate(-3.64246 85.2168 132.374)" fill="#141414"/>
<rect x="81.4268" y="126.079" width="8.66691" height="26.9709" rx="3" transform="rotate(-26.4165 81.4268 126.079)" fill="#141414"/>
<path d="M78.1213 110.368C85.254 115.614 91.1108 122.492 95.0281 130.489C95.8319 132.135 96.5592 133.819 97.1972 135.529C97.4907 136.301 97.6949 137.149 98.0266 137.908C98.3966 138.756 99.0984 139.438 99.5195 140.273C100.757 142.729 101.076 146.278 99.1112 148.476C96.4954 151.395 91.9912 149.183 89.771 146.946L90.7408 147.075C89.3372 148.09 87.3339 149.08 85.841 147.679C84.1057 146.033 84.2333 142.922 84.514 140.775C84.616 139.978 84.9606 139.103 84.9095 138.306C84.8712 137.573 84.565 136.789 84.3736 136.082C83.9525 134.488 83.4294 132.906 82.8424 131.363C81.4261 127.686 79.4994 124.228 77.1898 121.052C76.5901 120.216 77.9682 119.406 78.5679 120.242C82.0641 125.076 84.6416 130.541 86.0834 136.352C86.3897 137.56 86.5811 138.383 86.3259 139.605C85.9941 141.135 85.8027 142.768 86.0451 144.336C86.16 145.082 86.4024 146.355 87.1808 146.715C88.074 147.139 89.2606 146.188 89.9241 145.699C90.2048 145.493 90.6514 145.596 90.8939 145.828C92.3357 147.28 94.658 148.772 96.8017 148.116C98.4732 147.602 98.9836 145.583 98.907 144.015C98.856 142.999 98.588 141.996 98.1414 141.096C97.6949 140.196 96.9165 139.476 96.5465 138.525C95.8957 136.853 95.3853 135.156 94.658 133.511C90.8939 124.858 84.8712 117.336 77.3047 111.769C76.488 111.165 77.2792 109.777 78.1085 110.381L78.1213 110.368Z" fill="#696969"/>
</svg>
