<svg width="56" height="40" viewBox="0 0 56 40" fill="none" xmlns="http://www.w3.org/2000/svg">
<path d="M44.0822 23.6878C44.0822 23.6878 46.8421 24.1153 47.2728 24.8508C47.2728 24.8508 48.8863 22.8796 52.2783 23.2709C54.5925 23.5381 55.936 25.3981 55.9981 27.1126C56.0603 28.8272 54.2089 31.8352 51.1619 30.2126C51.1619 30.2126 52.2826 32.0618 50.9948 33.9582C49.707 35.8545 44.5729 34.6423 45.7385 30.5418C45.7385 30.5418 43.7136 30.42 42.0573 29.0731C40.4009 27.7262 44.0822 23.6878 44.0822 23.6878Z" fill="#FFF5D2"/>
<path d="M46.2789 29.4002C45.4625 29.1971 42.9704 27.863 42.9704 27.863L42.0576 29.0709C43.714 30.4178 45.7389 30.5397 45.7389 30.5397C44.5732 34.6401 49.7073 35.8523 50.9951 33.956C52.2829 32.0597 51.1622 30.2104 51.1622 30.2104C51.1622 30.2104 51.3765 31.8053 49.8873 32.8593C49.0388 33.46 45.4325 33.1073 46.281 29.4023L46.2789 29.4002Z" fill="url(#paint0_radial_1370_2750)"/>
<path d="M9.69353 13.6312C9.69353 13.6312 10.6599 10.5612 12.7705 8.98343C14.8812 7.40567 16.8139 5.91343 25.0786 5.73812C33.3433 5.56282 36.5938 6.17639 41.2544 11.3522C45.9149 16.528 45.0342 19.9486 43.6285 21.877C43.6285 21.877 47.8477 29.0689 38.1773 36.6113C28.507 44.1538 13.5634 34.8561 11.0135 31.0849C8.46358 27.3136 5.38656 21.8749 6.97007 19.5959C8.55357 17.3169 9.69567 13.6312 9.69567 13.6312H9.69353Z" fill="url(#paint1_radial_1370_2750)"/>
<path d="M9.90979 15.2644C9.90979 15.2644 12.0654 9.75298 16.1752 9.14796C20.2851 8.54294 20.7565 12.1731 21.4293 15.6001C22.1021 19.0271 23.3835 23.397 17.3881 26.3536C11.3926 29.3103 8.09058 24.3376 8.36057 21.2462C8.63056 18.1549 9.90979 15.2644 9.90979 15.2644Z" fill="#FF9CEC" stroke="url(#paint2_linear_1370_2750)" stroke-width="0.201269" stroke-miterlimit="10"/>
<path d="M17.1373 15.0229C17.1373 15.0229 10.7047 12.5002 8.56621 12.6948C8.56621 12.6948 9.47046 10.3858 7.63839 8.71188C6.1706 7.37142 3.355 7.10846 2.09505 9.39386C0.74511 11.8417 2.60503 14.1122 3.83498 14.7065C3.83498 14.7065 1.5915 14.7535 0.678685 16.3655C-0.55555 18.5461 0.252274 21.227 2.32647 22.0095C5.77847 23.3115 7.4434 19.5488 7.4434 19.5488C7.4434 19.5488 12.9825 21.5841 14.5467 21.6867C14.5467 21.6867 19.7643 20.6263 17.1373 15.0229Z" fill="#FFF5D2"/>
<path d="M50.5237 9.03684C41.6976 9.16511 41.5926 9.26773 41.4662 18.0737C41.3376 9.26773 41.2348 9.16297 32.4087 9.03684C41.2348 8.90856 41.3397 8.80594 41.4662 0C41.5947 8.80594 41.6976 8.9107 50.5237 9.03684Z" fill="white"/>
<path d="M33.7242 18.9396C34.6713 18.5868 32.5242 18.9396 31.725 18.2148C30.9257 17.4901 30.3065 18.0694 30.8165 18.4692C31.3264 18.869 30.3065 20.2095 33.7242 18.9417V18.9396Z" fill="#79187C"/>
<path d="M33.7245 18.9395C34.6716 18.5868 31.9396 19.3842 31.5882 19.1191C31.0482 18.7086 30.581 18.1913 30.8146 18.4692C31.2325 18.963 30.3046 20.2094 33.7223 18.9417L33.7245 18.9395Z" fill="#F268E5"/>
<path d="M34.3798 22.5526C34.3798 22.5526 34.0799 23.0486 34.8213 23.2324C35.5626 23.4163 35.192 22.5889 35.192 22.5889C35.192 22.5889 35.087 22.2426 34.3798 22.5526Z" fill="#79187C"/>
<path d="M34.3799 22.5526C34.3799 22.5526 34.0756 23.0635 34.8149 23.2559C35.2349 23.3649 35.2692 23.087 35.2692 23.087C35.2692 23.087 34.607 23.5274 34.3799 22.5526Z" fill="#F268E5"/>
<path d="M31.8965 23.8823C31.8965 23.4034 32.7365 23.7732 32.6807 24.173C32.625 24.5728 31.8965 24.1003 31.8965 23.8823Z" fill="#79187C"/>
<path d="M31.8965 23.8823C31.9758 23.32 31.9715 24.4852 32.6807 24.173C32.625 24.5728 31.8965 24.1003 31.8965 23.8823Z" fill="#F268E5"/>
<path d="M0.676431 16.3655C-0.583517 18.6402 0.25002 21.227 2.32422 22.0095C5.77622 23.3115 7.44115 19.5488 7.44115 19.5488C7.44115 19.5488 12.9802 21.5841 14.5444 21.6867C14.5444 21.6867 16.1279 21.413 17.0493 20.2073C17.0493 20.2073 8.67967 17.8919 7.82042 17.7765C5.19981 22.2618 -0.607087 20.4659 0.674288 16.3655H0.676431Z" fill="url(#paint3_radial_1370_2750)"/>
<defs>
<radialGradient id="paint0_radial_1370_2750" cx="0" cy="0" r="1" gradientUnits="userSpaceOnUse" gradientTransform="translate(46.836 31.3478) scale(4.18483 4.17529)">
<stop stop-color="#5B65E9"/>
<stop offset="1" stop-color="#FFF5D2"/>
</radialGradient>
<radialGradient id="paint1_radial_1370_2750" cx="0" cy="0" r="1" gradientUnits="userSpaceOnUse" gradientTransform="translate(35.561 1.21008) scale(132.532 132.23)">
<stop offset="0.06" stop-color="#FF85EE"/>
<stop offset="0.25" stop-color="#7C1787"/>
<stop offset="0.27" stop-color="#7C1A89"/>
<stop offset="0.28" stop-color="#7D2592"/>
<stop offset="0.3" stop-color="#8036A0"/>
<stop offset="0.31" stop-color="#834FB4"/>
<stop offset="0.32" stop-color="#8666C6"/>
<stop offset="1" stop-color="#6853E0"/>
</radialGradient>
<linearGradient id="paint2_linear_1370_2750" x1="8.23843" y1="18.1698" x2="22.1343" y2="18.1698" gradientUnits="userSpaceOnUse">
<stop stop-color="white" stop-opacity="0"/>
<stop offset="0.15" stop-color="#FFFEFE" stop-opacity="0.01"/>
<stop offset="0.28" stop-color="#FFFEFD" stop-opacity="0.06"/>
<stop offset="0.4" stop-color="#FFFDFC" stop-opacity="0.12"/>
<stop offset="0.52" stop-color="#FFFCFA" stop-opacity="0.22"/>
<stop offset="0.63" stop-color="#FFFBF7" stop-opacity="0.35"/>
<stop offset="0.74" stop-color="#FFFAF3" stop-opacity="0.51"/>
<stop offset="0.85" stop-color="#FFF8EF" stop-opacity="0.69"/>
<stop offset="0.95" stop-color="#FFF6EB" stop-opacity="0.9"/>
<stop offset="1" stop-color="#FFF6E9"/>
</linearGradient>
<radialGradient id="paint3_radial_1370_2750" cx="0" cy="0" r="1" gradientUnits="userSpaceOnUse" gradientTransform="translate(8.56825 19.3243) scale(9.14105 9.12021)">
<stop stop-color="#5B65E9"/>
<stop offset="1" stop-color="#FFF5D2"/>
</radialGradient>
</defs>
</svg>
