<svg width="38" height="66" viewBox="0 0 38 66" fill="none" xmlns="http://www.w3.org/2000/svg">
<path d="M35.7189 18.2364C35.7189 16.5371 34.3412 15.1594 32.6419 15.1594H11.199C9.49978 15.1594 8.12207 16.5371 8.12207 18.2364V29.2023C8.12207 29.5194 8.17119 29.832 8.2672 30.1357C9.17824 33.005 14.0706 49.0419 13.6865 61.4101C13.6463 62.6963 14.4011 63.8775 15.5935 64.3621C17.0694 64.9627 19.059 65.5299 21.446 65.5991C24.3488 65.6817 26.7403 64.9918 28.3993 64.2996C29.5247 63.8306 30.2638 62.7365 30.2817 61.5173C30.3755 55.6336 30.8957 48.7963 32.566 41.3651C33.8053 35.8498 35.1406 31.5023 35.5737 30.1379C35.6698 29.8365 35.7189 29.5216 35.7189 29.2046V18.2386V18.2364Z" fill="url(#paint0_linear_1370_2765)"/>
<path d="M35.7191 15.1594V26.7059C31.9878 27.4249 27.3947 28.0055 22.1362 28.0211C16.69 28.0367 11.9473 27.4405 8.12451 26.7059V15.1594H35.7191Z" fill="url(#paint1_linear_1370_2765)"/>
<path opacity="0.29" d="M35.7456 15.5747C34.2383 19.4734 31.5744 20.8958 30.3888 21.4562C26.1038 23.486 19.9364 23.6289 16.5781 20.3241C16.0131 19.7681 15.6402 19.2255 15.4236 18.8727C15.0552 19.7838 14.6019 20.1053 14.2558 20.2326C13.7177 20.4291 13.2622 20.2125 13.0478 20.5072C12.9205 20.6836 13.021 20.8444 13.1237 21.6371C13.1818 22.077 13.213 22.3963 13.2197 22.7602C13.2309 23.4301 13.4051 24.1849 12.8111 25.3616C12.5409 25.8975 12.206 26.746 12.2261 27.7888C12.2551 29.1889 12.9004 29.497 12.9853 30.9752C13.0143 31.462 13.0299 32.9045 12.1077 34.2487C11.6031 34.9856 10.4129 36.006 10.0267 36.2472L6.66162 22.1484L11.4021 15.2978C19.5077 15.8739 27.6378 15.0008 35.7433 15.5747H35.7456Z" fill="url(#paint2_linear_1370_2765)"/>
<path d="M35.7193 26.5831C31.9568 27.3512 27.2654 27.9921 21.8595 28.0233C16.3731 28.0546 11.6125 27.4472 7.80762 26.7059" stroke="#F9C7F4" stroke-width="0.359309" stroke-miterlimit="10" stroke-linecap="round"/>
<path d="M24.2841 0.169653C21.4103 0.133926 18.8425 1.21913 18.8425 1.21913C17.2035 1.89124 15.7699 2.85587 14.6445 4.03263C13.9635 3.81157 13.2356 3.68875 12.4786 3.68875C8.6134 3.68875 5.47836 6.82379 5.47836 10.689C5.47836 11.2361 5.54311 11.7653 5.66146 12.2766C5.8133 14.15 5.86465 17.3096 4.84643 19.6654C3.30571 23.2314 5.99193 28.1193 5.99193 28.1193C6.15493 28.3783 6.36037 28.7847 6.40279 29.2983C6.46308 30.0485 6.1326 30.5532 5.99193 30.9372C5.43593 32.4511 6.70648 35.0369 7.97032 35.1664C9.21852 35.2937 10.862 33.0652 10.7682 31.1516C10.7101 29.9637 10.0201 29.66 9.82588 27.8669C9.69637 26.6701 9.8817 25.6787 9.97772 25.2522C10.4042 23.3609 11.1768 23.2202 11.1947 21.876C11.2125 20.5988 10.5248 19.9825 10.9334 19.4421C11.2817 18.9821 11.9114 19.2478 12.684 18.9263C13.1172 18.7454 13.633 18.3636 14.0841 17.4994C14.4659 17.4101 14.8343 17.2895 15.1871 17.1399C16.518 18.1894 19.8049 20.4692 24.2841 20.4715C30.2907 20.4737 37.4584 16.383 37.7107 10.9123C37.9876 4.85881 29.6521 0.234407 24.2841 0.167419V0.169653Z" fill="#FFF5D2"/>
<path d="M13.9831 10.823C13.3088 10.9078 12.8689 11.3879 12.6255 11.6536C11.4287 12.9644 11.0245 15.8024 10.9776 16.1441C10.9776 16.1441 7.85151 15.2062 7.85151 21.5902C7.3759 24.4305 7.70191 26.5562 8.12394 28.021C8.66207 29.8878 9.72494 31.9599 8.91439 33.5274C8.81167 33.7239 8.55712 34.2018 8.06811 34.3358C7.48978 34.4943 6.78194 34.1214 6.21924 33.4046C6.51399 34.3536 7.18834 35.0749 7.96986 35.1664C9.17788 35.3093 9.99289 33.8892 10.2631 33.4158C11.0334 32.0738 10.8101 30.5889 10.5668 30.1624C10.5467 30.1267 10.4372 29.9436 10.3167 29.6801C10.3167 29.6801 10.1693 29.363 10.0643 29.0303C9.79639 28.1885 9.82319 27.0028 9.82319 26.9559C9.83659 26.4066 9.85669 25.6921 10.1447 24.8503C10.6047 23.506 11.2366 23.3497 11.2724 22.3739C11.2969 21.6951 11.1562 21.0074 11.1562 21.0074C11.0915 20.697 11.0267 20.4692 11.0267 20.4692C10.8794 19.9557 10.79 19.882 10.8079 19.748C10.8637 19.326 11.873 19.1496 12.3844 19.0268C13.1324 18.8459 14.1752 18.4484 15.3631 17.4682C16.4952 18.3346 19.3489 20.275 23.4664 20.5586C28.2092 20.8868 31.7372 18.8191 33.1975 17.8031C34.3564 16.997 35.196 16.1686 35.7431 15.5724C31.8086 17.9572 28.6178 17.9014 27.2535 17.7741C22.2651 17.3029 17.0333 13.536 16.1268 12.0198C16.0419 11.8769 15.611 11.1981 14.8294 10.9235C14.4007 10.7739 14.0546 10.8118 13.9787 10.8207L13.9831 10.823Z" fill="url(#paint3_linear_1370_2765)"/>
<path d="M1.95916 7.71476C2.8853 7.71476 3.6361 6.96398 3.6361 6.03783C3.6361 5.11169 2.8853 4.3609 1.95916 4.3609C1.03302 4.3609 0.282227 5.11169 0.282227 6.03783C0.282227 6.96398 1.03302 7.71476 1.95916 7.71476Z" fill="#FFF5D2"/>
<path d="M5.40458 3.70895C5.96322 3.70895 6.4161 3.25608 6.4161 2.69743C6.4161 2.13879 5.96322 1.68591 5.40458 1.68591C4.84593 1.68591 4.39307 2.13879 4.39307 2.69743C4.39307 3.25608 4.84593 3.70895 5.40458 3.70895Z" fill="#FFF5D2"/>
<path d="M3.16948 1.04501C3.45806 1.04501 3.69198 0.811079 3.69198 0.522507C3.69198 0.233935 3.45806 0 3.16948 0C2.88091 0 2.64697 0.233935 2.64697 0.522507C2.64697 0.811079 2.88091 1.04501 3.16948 1.04501Z" fill="#FFF5D2"/>
<defs>
<linearGradient id="paint0_linear_1370_2765" x1="44.9632" y1="40.4451" x2="13.2288" y2="40.329" gradientUnits="userSpaceOnUse">
<stop offset="0.22" stop-color="#752A71"/>
<stop offset="0.37" stop-color="#782C74"/>
<stop offset="0.5" stop-color="#83337D"/>
<stop offset="0.63" stop-color="#943F8D"/>
<stop offset="0.75" stop-color="#AD4FA4"/>
<stop offset="0.86" stop-color="#CE64C1"/>
<stop offset="0.98" stop-color="#F57EE5"/>
<stop offset="1" stop-color="#FF85EE"/>
</linearGradient>
<linearGradient id="paint1_linear_1370_2765" x1="34.645" y1="21.2486" x2="11.1725" y2="21.664" gradientUnits="userSpaceOnUse">
<stop stop-color="#5B65E9"/>
<stop offset="1" stop-color="#FFF5D2"/>
</linearGradient>
<linearGradient id="paint2_linear_1370_2765" x1="13.5346" y1="13.6365" x2="33.6265" y2="40.0052" gradientUnits="userSpaceOnUse">
<stop/>
<stop offset="0.92" stop-color="#D4D4D4" stop-opacity="0.17"/>
<stop offset="1" stop-color="white" stop-opacity="0"/>
</linearGradient>
<linearGradient id="paint3_linear_1370_2765" x1="10.4283" y1="13.8843" x2="22.7943" y2="26.5986" gradientUnits="userSpaceOnUse">
<stop stop-color="#5B65E9"/>
<stop offset="1" stop-color="#FFF5D2"/>
</linearGradient>
</defs>
</svg>
