<svg width="28" height="28" viewBox="0 0 28 28" fill="none" xmlns="http://www.w3.org/2000/svg">
<path d="M15.75 3.5C9.95167 3.5 5.25 8.20167 5.25 14H1.75L6.41667 18.655L11.0833 14H7.58333C7.58333 9.485 11.235 5.83333 15.75 5.83333C20.265 5.83333 23.9167 9.485 23.9167 14C23.9167 18.515 20.265 22.1667 15.75 22.1667C13.4983 22.1667 11.4567 21.245 9.98667 19.7633L8.33 21.42C10.2317 23.3217 12.845 24.5 15.75 24.5C21.5483 24.5 26.25 19.7983 26.25 14C26.25 8.20167 21.5483 3.5 15.75 3.5ZM14.5833 9.33333V15.1667L19.5417 18.1067L20.44 16.6133L16.3333 14.175V9.33333H14.5833Z" fill="white"/>
</svg>
