<svg width="20" height="20" viewBox="0 0 20 20" fill="none" xmlns="http://www.w3.org/2000/svg">
<path d="M12 10H13.5V12.82L15.94 14.23L15.19 15.53L12 13.69V10ZM2 0H16C16.5304 0 17.0391 0.210714 17.4142 0.585786C17.7893 0.960859 18 1.46957 18 2V8.1C19.24 9.36 20 11.09 20 13C20 14.8565 19.2625 16.637 17.9497 17.9497C16.637 19.2625 14.8565 20 13 20C11.09 20 9.36 19.24 8.1 18H2C1.46957 18 0.960859 17.7893 0.585786 17.4142C0.210714 17.0391 0 16.5304 0 16V2C0 1.46957 0.210714 0.960859 0.585786 0.585786C0.960859 0.210714 1.46957 0 2 0ZM2 13V16H6.67C6.24 15.09 6 14.07 6 13H2ZM2 6H8V3H2V6ZM16 6V3H10V6H16ZM2 11H6.29C6.63 9.85 7.26 8.82 8.1 8H2V11ZM13 8.15C11.7137 8.15 10.4801 8.66098 9.57053 9.57053C8.66098 10.4801 8.15 11.7137 8.15 13C8.15 15.68 10.32 17.85 13 17.85C13.6369 17.85 14.2676 17.7246 14.856 17.4808C15.4444 17.2371 15.9791 16.8798 16.4295 16.4295C16.8798 15.9791 17.2371 15.4444 17.4808 14.856C17.7246 14.2676 17.85 13.6369 17.85 13C17.85 10.32 15.68 8.15 13 8.15Z" fill="white"/>
</svg>
