<svg width="28" height="28" viewBox="0 0 28 28" fill="none" xmlns="http://www.w3.org/2000/svg">
<mask id="mask0_473_114" style="mask-type:alpha" maskUnits="userSpaceOnUse" x="0" y="0" width="28" height="28">
<path d="M0 14C0 6.26801 6.26801 0 14 0C21.732 0 28 6.26801 28 14V28H0V14Z" fill="#D9D9D9"/>
</mask>
<g mask="url(#mask0_473_114)">
<path d="M7.57192 23.9167V14.4868C6.56081 14.2371 5.72655 13.7338 5.06913 12.9768C4.41172 12.2201 4.08301 11.2972 4.08301 10.2083C4.08301 9.23767 4.36651 8.37424 4.93351 7.61805C5.50031 6.86205 6.25038 6.33218 7.18372 6.02846C7.61597 5.1101 8.2483 4.36489 9.08072 3.79284C9.91294 3.22078 10.872 2.93475 11.958 2.93475C12.5936 2.93475 13.2005 3.04393 13.7786 3.26229C14.3567 3.48066 14.9037 3.80674 15.4198 4.24055C15.5993 4.18668 15.771 4.14517 15.9349 4.116C16.0986 4.08684 16.2799 4.07225 16.4788 4.07225C17.665 4.07225 18.6682 4.50489 19.4886 5.37017C20.3089 6.23545 20.7191 7.26114 20.7191 8.44725C20.7191 8.84509 20.6806 9.2123 20.6036 9.54888C20.5266 9.88527 20.4073 10.2023 20.2457 10.5H21.695C22.3069 10.5 22.8301 10.7154 23.2645 11.146C23.6991 11.5769 23.9163 12.0982 23.9163 12.71V19.2611C23.9163 19.8728 23.6991 20.396 23.2645 20.8305C22.8301 21.2651 22.3069 21.4824 21.695 21.4824H19.6087V23.9167H7.57192ZM5.83301 10.2083C5.83301 10.9323 6.08948 11.5508 6.60242 12.0639C7.11556 12.5769 7.73409 12.8333 8.45801 12.8333C9.11756 12.8333 9.67552 12.633 10.1319 12.2322C10.5881 11.8313 11.0495 11.378 11.5161 10.8725C12.0322 10.3101 12.5833 9.81575 13.1696 9.38934C13.7558 8.96311 14.5224 8.75 15.4694 8.75H18.9694C19.0141 7.93625 18.7912 7.24491 18.3006 6.67596C17.81 6.10682 17.2028 5.82225 16.4788 5.82225C16.0975 5.82225 15.7715 5.86668 15.5006 5.95555C15.2299 6.0446 15.0535 6.11159 14.9712 6.1565L14.1904 5.49909C13.9542 5.30911 13.6509 5.12585 13.2807 4.9493C12.9105 4.77293 12.4696 4.68475 11.958 4.68475C11.2835 4.68475 10.6661 4.86306 10.1059 5.21967C9.54573 5.57648 9.11455 6.06677 8.81238 6.69055L8.44897 7.45325L7.62793 7.72917C7.08193 7.90709 6.64627 8.2216 6.32097 8.67271C5.99566 9.12363 5.83301 9.6355 5.83301 10.2083ZM19.6087 19.7324H21.695C21.8298 19.7324 21.942 19.6875 22.0316 19.5977C22.1214 19.508 22.1663 19.3958 22.1663 19.2611V12.71C22.1663 12.5754 22.1214 12.4651 22.0316 12.3789C21.942 12.293 21.8298 12.25 21.695 12.25H19.6087V19.7324Z" fill="#535353"/>
</g>
</svg>
