<svg width="28" height="28" viewBox="0 0 28 28" fill="none" xmlns="http://www.w3.org/2000/svg">
<mask id="mask0_320_1057" style="mask-type:alpha" maskUnits="userSpaceOnUse" x="0" y="0" width="28" height="28">
<path d="M0 14C0 6.26801 6.26801 0 14 0C21.732 0 28 6.26801 28 14V28H0V14Z" fill="#D9D9D9"/>
</mask>
<g mask="url(#mask0_320_1057)">
<path d="M17.4997 23.8717L10.4997 21.4217L5.47863 23.3645C5.13466 23.4977 4.81606 23.4596 4.52284 23.2502C4.22962 23.0407 4.08301 22.7543 4.08301 22.3909V7.08979C4.08301 6.85937 4.14474 6.65258 4.26822 6.46941C4.39149 6.28625 4.56465 6.15354 4.78767 6.07129L10.4997 4.1282L17.4997 6.5782L22.5207 4.63541C22.8647 4.50222 23.1833 4.53469 23.4765 4.73283C23.7697 4.93097 23.9163 5.20805 23.9163 5.56408V20.955C23.9163 21.1928 23.8491 21.4015 23.7145 21.581C23.5798 21.7604 23.3973 21.8913 23.1671 21.9735L17.4997 23.8717ZM16.6247 21.7315V8.08146L11.3747 6.246V19.896L16.6247 21.7315Z" fill="#FF85EE"/>
</g>
</svg>
