<svg width="28" height="28" viewBox="0 0 28 28" fill="none" xmlns="http://www.w3.org/2000/svg">
<mask id="mask0_473_106" style="mask-type:alpha" maskUnits="userSpaceOnUse" x="0" y="0" width="28" height="28">
<path d="M0 14C0 6.26801 6.26801 0 14 0C21.732 0 28 6.26801 28 14V28H0V14Z" fill="#D9D9D9"/>
</mask>
<g mask="url(#mask0_473_106)">
<path d="M17.4997 23.8717L10.4997 21.4217L5.47863 23.3645C5.13466 23.4977 4.81606 23.4595 4.52284 23.2501C4.22962 23.0407 4.08301 22.7543 4.08301 22.3909V7.08976C4.08301 6.85934 4.14474 6.65255 4.26822 6.46938C4.39149 6.28622 4.56465 6.15351 4.78767 6.07126L10.4997 4.12817L17.4997 6.57817L22.5207 4.63538C22.8647 4.50219 23.1833 4.53466 23.4765 4.7328C23.7697 4.93094 23.9163 5.20802 23.9163 5.56405V20.955C23.9163 21.1928 23.8491 21.4015 23.7145 21.5809C23.5798 21.7604 23.3973 21.8913 23.1671 21.9735L17.4997 23.8717ZM16.6247 21.7314V8.08142L11.3747 6.24597V19.896L16.6247 21.7314Z" fill="#535353"/>
</g>
</svg>
