<svg width="28" height="28" viewBox="0 0 28 28" fill="none" xmlns="http://www.w3.org/2000/svg">
<mask id="mask0_473_110" style="mask-type:alpha" maskUnits="userSpaceOnUse" x="0" y="0" width="28" height="28">
<path d="M0 14C0 6.26801 6.26801 0 14 0C21.732 0 28 6.26801 28 14V28H0V14Z" fill="#D9D9D9"/>
</mask>
<g mask="url(#mask0_473_110)">
<path d="M11.7093 20.8206C12.631 20.8206 13.4152 20.4978 14.0622 19.852C14.7089 19.2065 15.0322 18.4225 15.0322 17.5V9.24352H18.4427V7.1794H13.6413V14.8257C13.3541 14.6253 13.0476 14.4675 12.722 14.3524C12.3961 14.237 12.0594 14.1794 11.7119 14.1794C10.7895 14.1794 10.0055 14.502 9.35991 15.1471C8.71416 15.7923 8.39128 16.5757 8.39128 17.4974C8.39128 18.4191 8.71387 19.2034 9.35903 19.8503C10.0042 20.4972 10.7876 20.8206 11.7093 20.8206ZM14.0024 25.0834C12.4694 25.0834 11.0284 24.7925 9.67957 24.2107C8.33071 23.6289 7.15744 22.8394 6.15974 21.8421C5.16205 20.8448 4.37212 19.672 3.78995 18.3237C3.20798 16.9754 2.91699 15.5349 2.91699 14.0021C2.91699 12.4691 3.20788 11.0281 3.78966 9.67927C4.37144 8.33041 5.16098 7.15713 6.15828 6.15944C7.15559 5.16174 8.32838 4.37181 9.67666 3.78965C11.0249 3.20767 12.4655 2.91669 13.9983 2.91669C15.5313 2.91669 16.9722 3.20758 18.3211 3.78935C19.6699 4.37113 20.8432 5.16067 21.8409 6.15798C22.8386 7.15528 23.6285 8.32808 24.2107 9.67635C24.7927 11.0246 25.0837 12.4652 25.0837 13.998C25.0837 15.531 24.7928 16.9719 24.211 18.3208C23.6292 19.6696 22.8397 20.8429 21.8424 21.8406C20.8451 22.8383 19.6723 23.6282 18.324 24.2104C16.9757 24.7924 15.5352 25.0834 14.0024 25.0834Z" fill="#535353"/>
</g>
</svg>
